<svg xmlns="http://www.w3.org/2000/svg" width="460" height="300" font-family="system-ui,sans-serif" font-size="11"><rect width="460" height="300" fill="white"/><text x="230" y="18" text-anchor="middle" font-size="13" font-weight="600">dashboard · cold · ttdp_ms</text><line x1="56" y1="254" x2="444" y2="254" stroke="#eee"/><text x="50" y="257" text-anchor="end" fill="#666">12.0</text><line x1="56" y1="199.5" x2="444" y2="199.5" stroke="#eee"/><text x="50" y="202.5" text-anchor="end" fill="#666">42.3</text><line x1="56" y1="145" x2="444" y2="145" stroke="#eee"/><text x="50" y="148" text-anchor="end" fill="#666">72.7</text><line x1="56" y1="90.5" x2="444" y2="90.5" stroke="#eee"/><text x="50" y="93.5" text-anchor="end" fill="#666">103.1</text><line x1="56" y1="36" x2="444" y2="36" stroke="#eee"/><text x="50" y="39" text-anchor="end" fill="#666">133.4</text><line x1="120.66666666666667" y1="234.621623847203" x2="120.66666666666667" y2="199.20380434676483" stroke="#0072B2" stroke-width="1.5"/><line x1="102.66666666666667" y1="199.20380434676483" x2="138.66666666666669" y2="199.20380434676483" stroke="#0072B2"/><line x1="102.66666666666667" y1="234.621623847203" x2="138.66666666666669" y2="234.621623847203" stroke="#0072B2"/><rect x="84.66666666666667" y="213.0801218769027" width="72" height="13.05953556671929" fill="#0072B222" stroke="#0072B2" stroke-width="1.5"/><line x1="84.66666666666667" y1="215.90744400986932" x2="156.66666666666669" y2="215.90744400986932" stroke="#0072B2" stroke-width="2.5"/><text x="120.66666666666667" y="270" text-anchor="middle" font-weight="600">tide</text><text x="120.66666666666667" y="284" text-anchor="middle" fill="#888">n=30 · med 33.2</text><line x1="250" y1="217.42432477385427" x2="250" y2="76.37236495711144" stroke="#E69F00" stroke-width="1.5"/><line x1="232" y1="76.37236495711144" x2="268" y2="76.37236495711144" stroke="#E69F00"/><line x1="232" y1="217.42432477385427" x2="268" y2="217.42432477385427" stroke="#E69F00"/><rect x="214" y="201.00790514204044" width="72" height="10.95026351030748" fill="#E69F0022" stroke="#E69F00" stroke-width="1.5"/><line x1="214" y1="205.22644928161355" x2="286" y2="205.22644928161355" stroke="#E69F00" stroke-width="2.5"/><text x="250" y="270" text-anchor="middle" font-weight="600">tanstack</text><text x="250" y="284" text-anchor="middle" fill="#888">n=30 · med 39.1</text><line x1="379.33333333333337" y1="221.80443017730852" x2="379.33333333333337" y2="164.7822793155093" stroke="#009E73" stroke-width="1.5"/><line x1="361.33333333333337" y1="164.7822793155093" x2="397.33333333333337" y2="164.7822793155093" stroke="#009E73"/><line x1="361.33333333333337" y1="221.80443017730852" x2="397.33333333333337" y2="221.80443017730852" stroke="#009E73"/><rect x="343.33333333333337" y="205.8996212216963" width="72" height="7.5395256867964235" fill="#009E7322" stroke="#009E73" stroke-width="1.5"/><line x1="343.33333333333337" y1="211.50938735784487" x2="415.33333333333337" y2="211.50938735784487" stroke="#009E73" stroke-width="2.5"/><text x="379.33333333333337" y="270" text-anchor="middle" font-weight="600">swr</text><text x="379.33333333333337" y="284" text-anchor="middle" fill="#888">n=30 · med 35.6</text></svg>