<svg xmlns="http://www.w3.org/2000/svg" width="460" height="300" font-family="system-ui,sans-serif" font-size="11"><rect width="460" height="300" fill="white"/><text x="230" y="18" text-anchor="middle" font-size="13" font-weight="600">gateways · cold · fcp_ms</text><line x1="56" y1="254" x2="444" y2="254" stroke="#eee"/><text x="50" y="257" text-anchor="end" fill="#666">22.6</text><line x1="56" y1="199.5" x2="444" y2="199.5" stroke="#eee"/><text x="50" y="202.5" text-anchor="end" fill="#666">31.0</text><line x1="56" y1="145" x2="444" y2="145" stroke="#eee"/><text x="50" y="148" text-anchor="end" fill="#666">39.4</text><line x1="56" y1="90.50000000000003" x2="444" y2="90.50000000000003" stroke="#eee"/><text x="50" y="93.50000000000003" text-anchor="end" fill="#666">47.8</text><line x1="56" y1="36" x2="444" y2="36" stroke="#eee"/><text x="50" y="39" text-anchor="end" fill="#666">56.2</text><line x1="120.66666666666667" y1="228.53422621028696" x2="120.66666666666667" y2="68.47291666612287" stroke="#0072B2" stroke-width="1.5"/><line x1="102.66666666666667" y1="68.47291666612287" x2="138.66666666666669" y2="68.47291666612287" stroke="#0072B2"/><line x1="102.66666666666667" y1="228.53422621028696" x2="138.66666666666669" y2="228.53422621028696" stroke="#0072B2"/><rect x="84.66666666666667" y="125.37351192129249" width="72" height="68.44940478495262" fill="#0072B222" stroke="#0072B2" stroke-width="1.5"/><line x1="84.66666666666667" y1="170.30357144980655" x2="156.66666666666669" y2="170.30357144980655" stroke="#0072B2" stroke-width="2.5"/><text x="120.66666666666667" y="270" text-anchor="middle" font-weight="600">tide</text><text x="120.66666666666667" y="284" text-anchor="middle" fill="#888">n=10 · med 35.5</text><line x1="250" y1="219.93750001268927" x2="250" y2="92.93303571009913" stroke="#E69F00" stroke-width="1.5"/><line x1="232" y1="92.93303571009913" x2="268" y2="92.93303571009913" stroke="#E69F00"/><line x1="232" y1="219.93750001268927" x2="268" y2="219.93750001268927" stroke="#E69F00"/><rect x="214" y="163.4910714673298" width="72" height="47.038690476622094" fill="#E69F0022" stroke="#E69F00" stroke-width="1.5"/><line x1="214" y1="193.3363095801775" x2="286" y2="193.3363095801775" stroke="#E69F00" stroke-width="2.5"/><text x="250" y="270" text-anchor="middle" font-weight="600">tanstack</text><text x="250" y="284" text-anchor="middle" fill="#888">n=16 · med 31.9</text><line x1="379.33333333333337" y1="222.2732143314129" x2="379.33333333333337" y2="79.89196426258871" stroke="#009E73" stroke-width="1.5"/><line x1="361.33333333333337" y1="79.89196426258871" x2="397.33333333333337" y2="79.89196426258871" stroke="#009E73"/><line x1="361.33333333333337" y1="222.2732143314129" x2="397.33333333333337" y2="222.2732143314129" stroke="#009E73"/><rect x="343.33333333333337" y="107.85565475443796" width="72" height="81.58779763592345" fill="#009E7322" stroke="#009E73" stroke-width="1.5"/><line x1="343.33333333333337" y1="169.97916668298143" x2="415.33333333333337" y2="169.97916668298143" stroke="#009E73" stroke-width="2.5"/><text x="379.33333333333337" y="270" text-anchor="middle" font-weight="600">swr</text><text x="379.33333333333337" y="284" text-anchor="middle" fill="#888">n=12 · med 35.6</text></svg>