<svg xmlns="http://www.w3.org/2000/svg" width="460" height="300" font-family="system-ui,sans-serif" font-size="11"><rect width="460" height="300" fill="white"/><text x="230" y="18" text-anchor="middle" font-size="13" font-weight="600">gateways · cold · ttdp_ms</text><line x1="56" y1="254" x2="444" y2="254" stroke="#eee"/><text x="50" y="257" text-anchor="end" fill="#666">8.1</text><line x1="56" y1="199.5" x2="444" y2="199.5" stroke="#eee"/><text x="50" y="202.5" text-anchor="end" fill="#666">44.4</text><line x1="56" y1="145" x2="444" y2="145" stroke="#eee"/><text x="50" y="148" text-anchor="end" fill="#666">80.7</text><line x1="56" y1="90.5" x2="444" y2="90.5" stroke="#eee"/><text x="50" y="93.5" text-anchor="end" fill="#666">116.9</text><line x1="56" y1="36" x2="444" y2="36" stroke="#eee"/><text x="50" y="39" text-anchor="end" fill="#666">153.2</text><line x1="120.66666666666667" y1="232.44492694006732" x2="120.66666666666667" y2="149.1322029242558" stroke="#0072B2" stroke-width="1.5"/><line x1="102.66666666666667" y1="149.1322029242558" x2="138.66666666666669" y2="149.1322029242558" stroke="#0072B2"/><line x1="102.66666666666667" y1="232.44492694006732" x2="138.66666666666669" y2="232.44492694006732" stroke="#0072B2"/><rect x="84.66666666666667" y="212.50516956917042" width="72" height="16.265853324184718" fill="#0072B222" stroke="#0072B2" stroke-width="1.5"/><line x1="84.66666666666667" y1="220.95740281989492" x2="156.66666666666669" y2="220.95740281989492" stroke="#0072B2" stroke-width="2.5"/><text x="120.66666666666667" y="270" text-anchor="middle" font-weight="600">tide</text><text x="120.66666666666667" y="284" text-anchor="middle" fill="#888">n=30 · med 30.1</text><line x1="250" y1="220.0483181678599" x2="250" y2="187.1484698181164" stroke="#E69F00" stroke-width="1.5"/><line x1="232" y1="187.1484698181164" x2="268" y2="187.1484698181164" stroke="#E69F00"/><line x1="232" y1="220.0483181678599" x2="268" y2="220.0483181678599" stroke="#E69F00"/><rect x="214" y="205.51799007574735" width="72" height="8.264405850750563" fill="#E69F0022" stroke="#E69F00" stroke-width="1.5"/><line x1="214" y1="211.04011580347242" x2="286" y2="211.04011580347242" stroke="#E69F00" stroke-width="2.5"/><text x="250" y="270" text-anchor="middle" font-weight="600">tanstack</text><text x="250" y="284" text-anchor="middle" fill="#888">n=30 · med 36.7</text><line x1="379.33333333333337" y1="230.2886683255601" x2="379.33333333333337" y2="155.5859525756676" stroke="#009E73" stroke-width="1.5"/><line x1="361.33333333333337" y1="155.5859525756676" x2="397.33333333333337" y2="155.5859525756676" stroke="#009E73"/><line x1="361.33333333333337" y1="230.2886683255601" x2="397.33333333333337" y2="230.2886683255601" stroke="#009E73"/><rect x="343.33333333333337" y="191.50606562122135" width="72" height="28.023848914649705" fill="#009E7322" stroke="#009E73" stroke-width="1.5"/><line x1="343.33333333333337" y1="215.32258065274527" x2="415.33333333333337" y2="215.32258065274527" stroke="#009E73" stroke-width="2.5"/><text x="379.33333333333337" y="270" text-anchor="middle" font-weight="600">swr</text><text x="379.33333333333337" y="284" text-anchor="middle" fill="#888">n=30 · med 33.8</text></svg>