<svg xmlns="http://www.w3.org/2000/svg" width="460" height="300" font-family="system-ui,sans-serif" font-size="11"><rect width="460" height="300" fill="white"/><text x="230" y="18" text-anchor="middle" font-size="13" font-weight="600">daemon · cold · fcp_ms</text><line x1="56" y1="254" x2="444" y2="254" stroke="#eee"/><text x="50" y="257" text-anchor="end" fill="#666">22.3</text><line x1="56" y1="199.50000000000003" x2="444" y2="199.50000000000003" stroke="#eee"/><text x="50" y="202.50000000000003" text-anchor="end" fill="#666">32.1</text><line x1="56" y1="144.99999999999997" x2="444" y2="144.99999999999997" stroke="#eee"/><text x="50" y="147.99999999999997" text-anchor="end" fill="#666">41.9</text><line x1="56" y1="90.50000000000003" x2="444" y2="90.50000000000003" stroke="#eee"/><text x="50" y="93.50000000000003" text-anchor="end" fill="#666">51.7</text><line x1="56" y1="36" x2="444" y2="36" stroke="#eee"/><text x="50" y="39" text-anchor="end" fill="#666">61.5</text><line x1="120.66666666666667" y1="214.35097136316386" x2="120.66666666666667" y2="68.7111452014953" stroke="#0072B2" stroke-width="1.5"/><line x1="102.66666666666667" y1="68.7111452014953" x2="138.66666666666669" y2="68.7111452014953" stroke="#0072B2"/><line x1="102.66666666666667" y1="214.35097136316386" x2="138.66666666666669" y2="214.35097136316386" stroke="#0072B2"/><rect x="84.66666666666667" y="123.68481595053815" width="72" height="63.806237197162844" fill="#0072B222" stroke="#0072B2" stroke-width="1.5"/><line x1="84.66666666666667" y1="162.8323108294033" x2="156.66666666666669" y2="162.8323108294033" stroke="#0072B2" stroke-width="2.5"/><text x="120.66666666666667" y="270" text-anchor="middle" font-weight="600">tide</text><text x="120.66666666666667" y="284" text-anchor="middle" fill="#888">n=10 · med 38.7</text><line x1="250" y1="216.05061346914275" x2="250" y2="141.23849690655953" stroke="#E69F00" stroke-width="1.5"/><line x1="232" y1="141.23849690655953" x2="268" y2="141.23849690655953" stroke="#E69F00"/><line x1="232" y1="216.05061346914275" x2="268" y2="216.05061346914275" stroke="#E69F00"/><rect x="214" y="154.19478524448851" width="72" height="32.7390081709803" fill="#E69F0022" stroke="#E69F00" stroke-width="1.5"/><line x1="214" y1="161.99642126738422" x2="286" y2="161.99642126738422" stroke="#E69F00" stroke-width="2.5"/><text x="250" y="270" text-anchor="middle" font-weight="600">tanstack</text><text x="250" y="284" text-anchor="middle" fill="#888">n=14 · med 38.8</text><line x1="379.33333333333337" y1="227.86451939180597" x2="379.33333333333337" y2="116.85838444918804" stroke="#009E73" stroke-width="1.5"/><line x1="361.33333333333337" y1="116.85838444918804" x2="397.33333333333337" y2="116.85838444918804" stroke="#009E73"/><line x1="361.33333333333337" y1="227.86451939180597" x2="397.33333333333337" y2="227.86451939180597" stroke="#009E73"/><rect x="343.33333333333337" y="152.9409509325992" width="72" height="59.208844533399485" fill="#009E7322" stroke="#009E73" stroke-width="1.5"/><line x1="343.33333333333337" y1="186.51584865521883" x2="415.33333333333337" y2="186.51584865521883" stroke="#009E73" stroke-width="2.5"/><text x="379.33333333333337" y="270" text-anchor="middle" font-weight="600">swr</text><text x="379.33333333333337" y="284" text-anchor="middle" fill="#888">n=14 · med 34.4</text></svg>