<svg xmlns="http://www.w3.org/2000/svg" width="460" height="300" font-family="system-ui,sans-serif" font-size="11"><rect width="460" height="300" fill="white"/><text x="230" y="18" text-anchor="middle" font-size="13" font-weight="600">stack · cold · ttdp_ms</text><line x1="56" y1="254" x2="444" y2="254" stroke="#eee"/><text x="50" y="257" text-anchor="end" fill="#666">6.5</text><line x1="56" y1="199.5" x2="444" y2="199.5" stroke="#eee"/><text x="50" y="202.5" text-anchor="end" fill="#666">43.5</text><line x1="56" y1="145" x2="444" y2="145" stroke="#eee"/><text x="50" y="148" text-anchor="end" fill="#666">80.5</text><line x1="56" y1="90.5" x2="444" y2="90.5" stroke="#eee"/><text x="50" y="93.5" text-anchor="end" fill="#666">117.5</text><line x1="56" y1="36" x2="444" y2="36" stroke="#eee"/><text x="50" y="39" text-anchor="end" fill="#666">154.5</text><line x1="120.66666666666667" y1="234.16241220334416" x2="120.66666666666667" y2="142.65923824485031" stroke="#0072B2" stroke-width="1.5"/><line x1="102.66666666666667" y1="142.65923824485031" x2="138.66666666666669" y2="142.65923824485031" stroke="#0072B2"/><line x1="102.66666666666667" y1="234.16241220334416" x2="138.66666666666669" y2="234.16241220334416" stroke="#0072B2"/><rect x="84.66666666666667" y="212.6833468343308" width="72" height="9.127498648392077" fill="#0072B222" stroke="#0072B2" stroke-width="1.5"/><line x1="84.66666666666667" y1="219.19773094945782" x2="156.66666666666669" y2="219.19773094945782" stroke="#0072B2" stroke-width="2.5"/><text x="120.66666666666667" y="270" text-anchor="middle" font-weight="600">tide</text><text x="120.66666666666667" y="284" text-anchor="middle" fill="#888">n=30 · med 30.1</text><line x1="250" y1="219.14620475157233" x2="250" y2="167.13418421810056" stroke="#E69F00" stroke-width="1.5"/><line x1="232" y1="167.13418421810056" x2="268" y2="167.13418421810056" stroke="#E69F00"/><line x1="232" y1="219.14620475157233" x2="268" y2="219.14620475157233" stroke="#E69F00"/><rect x="214" y="205.06482981531371" width="72" height="11.262155594998688" fill="#E69F0022" stroke="#E69F00" stroke-width="1.5"/><line x1="214" y1="209.1133171167804" x2="286" y2="209.1133171167804" stroke="#E69F00" stroke-width="2.5"/><text x="250" y="270" text-anchor="middle" font-weight="600">tanstack</text><text x="250" y="284" text-anchor="middle" fill="#888">n=30 · med 37.0</text><line x1="379.33333333333337" y1="222.5322123167377" x2="379.33333333333337" y2="171.6758508888804" stroke="#009E73" stroke-width="1.5"/><line x1="361.33333333333337" y1="171.6758508888804" x2="397.33333333333337" y2="171.6758508888804" stroke="#009E73"/><line x1="361.33333333333337" y1="222.5322123167377" x2="397.33333333333337" y2="222.5322123167377" stroke="#009E73"/><rect x="343.33333333333337" y="208.634859530122" width="72" height="11.81422204008831" fill="#009E7322" stroke="#009E73" stroke-width="1.5"/><line x1="343.33333333333337" y1="214.41315504996808" x2="415.33333333333337" y2="214.41315504996808" stroke="#009E73" stroke-width="2.5"/><text x="379.33333333333337" y="270" text-anchor="middle" font-weight="600">swr</text><text x="379.33333333333337" y="284" text-anchor="middle" fill="#888">n=30 · med 33.3</text></svg>