<svg xmlns="http://www.w3.org/2000/svg" width="460" height="300" font-family="system-ui,sans-serif" font-size="11"><rect width="460" height="300" fill="white"/><text x="230" y="18" text-anchor="middle" font-size="13" font-weight="600">dashboard · cold · fcp_ms</text><line x1="56" y1="254" x2="444" y2="254" stroke="#eee"/><text x="50" y="257" text-anchor="end" fill="#666">19.7</text><line x1="56" y1="199.5" x2="444" y2="199.5" stroke="#eee"/><text x="50" y="202.5" text-anchor="end" fill="#666">29.0</text><line x1="56" y1="144.99999999999997" x2="444" y2="144.99999999999997" stroke="#eee"/><text x="50" y="147.99999999999997" text-anchor="end" fill="#666">38.3</text><line x1="56" y1="90.50000000000003" x2="444" y2="90.50000000000003" stroke="#eee"/><text x="50" y="93.50000000000003" text-anchor="end" fill="#666">47.6</text><line x1="56" y1="36" x2="444" y2="36" stroke="#eee"/><text x="50" y="39" text-anchor="end" fill="#666">56.9</text><line x1="120.66666666666667" y1="202.312903225567" x2="120.66666666666667" y2="89.53306452815013" stroke="#0072B2" stroke-width="1.5"/><line x1="102.66666666666667" y1="89.53306452815013" x2="138.66666666666669" y2="89.53306452815013" stroke="#0072B2"/><line x1="102.66666666666667" y1="202.312903225567" x2="138.66666666666669" y2="202.312903225567" stroke="#0072B2"/><rect x="84.66666666666667" y="133.13306453862901" width="72" height="34.135752642855124" fill="#0072B222" stroke="#0072B2" stroke-width="1.5"/><line x1="84.66666666666667" y1="139.72580643978188" x2="156.66666666666669" y2="139.72580643978188" stroke="#0072B2" stroke-width="2.5"/><text x="120.66666666666667" y="270" text-anchor="middle" font-weight="600">tide</text><text x="120.66666666666667" y="284" text-anchor="middle" fill="#888">n=14 · med 39.2</text><line x1="250" y1="212.7440860126462" x2="250" y2="72.21612903272283" stroke="#E69F00" stroke-width="1.5"/><line x1="232" y1="72.21612903272283" x2="268" y2="72.21612903272283" stroke="#E69F00"/><line x1="232" y1="212.7440860126462" x2="268" y2="212.7440860126462" stroke="#E69F00"/><rect x="214" y="144.2674731184556" width="72" height="57.28360214986864" fill="#E69F0022" stroke="#E69F00" stroke-width="1.5"/><line x1="214" y1="189.24462364964634" x2="286" y2="189.24462364964634" stroke="#E69F00" stroke-width="2.5"/><text x="250" y="270" text-anchor="middle" font-weight="600">tanstack</text><text x="250" y="284" text-anchor="middle" fill="#888">n=12 · med 30.8</text><line x1="379.33333333333337" y1="235.48172042495258" x2="379.33333333333337" y2="162.2290322443181" stroke="#009E73" stroke-width="1.5"/><line x1="361.33333333333337" y1="162.2290322443181" x2="397.33333333333337" y2="162.2290322443181" stroke="#009E73"/><line x1="361.33333333333337" y1="235.48172042495258" x2="397.33333333333337" y2="235.48172042495258" stroke="#009E73"/><rect x="343.33333333333337" y="183.09139781847642" width="72" height="42.77956990838862" fill="#009E7322" stroke="#009E73" stroke-width="1.5"/><line x1="343.33333333333337" y1="219.42473116054217" x2="415.33333333333337" y2="219.42473116054217" stroke="#009E73" stroke-width="2.5"/><text x="379.33333333333337" y="270" text-anchor="middle" font-weight="600">swr</text><text x="379.33333333333337" y="284" text-anchor="middle" fill="#888">n=13 · med 25.6</text></svg>