<svg xmlns="http://www.w3.org/2000/svg" width="460" height="300" font-family="system-ui,sans-serif" font-size="11"><rect width="460" height="300" fill="white"/><text x="230" y="18" text-anchor="middle" font-size="13" font-weight="600">stack · cold · fcp_ms</text><line x1="56" y1="254" x2="444" y2="254" stroke="#eee"/><text x="50" y="257" text-anchor="end" fill="#666">17.8</text><line x1="56" y1="199.5" x2="444" y2="199.5" stroke="#eee"/><text x="50" y="202.5" text-anchor="end" fill="#666">26.6</text><line x1="56" y1="145" x2="444" y2="145" stroke="#eee"/><text x="50" y="148" text-anchor="end" fill="#666">35.4</text><line x1="56" y1="90.5" x2="444" y2="90.5" stroke="#eee"/><text x="50" y="93.5" text-anchor="end" fill="#666">44.1</text><line x1="56" y1="36" x2="444" y2="36" stroke="#eee"/><text x="50" y="39" text-anchor="end" fill="#666">52.9</text><line x1="120.66666666666667" y1="215.37258249648798" x2="120.66666666666667" y2="83.15273037837497" stroke="#0072B2" stroke-width="1.5"/><line x1="102.66666666666667" y1="83.15273037837497" x2="138.66666666666669" y2="83.15273037837497" stroke="#0072B2"/><line x1="102.66666666666667" y1="215.37258249648798" x2="138.66666666666669" y2="215.37258249648798" stroke="#0072B2"/><rect x="84.66666666666667" y="126.86433446452557" width="72" height="61.07224117551604" fill="#0072B222" stroke="#0072B2" stroke-width="1.5"/><line x1="84.66666666666667" y1="156.4704209201864" x2="156.66666666666669" y2="156.4704209201864" stroke="#0072B2" stroke-width="2.5"/><text x="120.66666666666667" y="270" text-anchor="middle" font-weight="600">tide</text><text x="120.66666666666667" y="284" text-anchor="middle" fill="#888">n=12 · med 33.5</text><line x1="250" y1="187.84357225570392" x2="250" y2="106.99260524967961" stroke="#E69F00" stroke-width="1.5"/><line x1="232" y1="106.99260524967961" x2="268" y2="106.99260524967961" stroke="#E69F00"/><line x1="232" y1="187.84357225570392" x2="268" y2="187.84357225570392" stroke="#E69F00"/><rect x="214" y="143.13993177045208" width="72" height="33.636234330618464" fill="#E69F0022" stroke="#E69F00" stroke-width="1.5"/><line x1="214" y1="149.03014788650648" x2="286" y2="149.03014788650648" stroke="#E69F00" stroke-width="2.5"/><text x="250" y="270" text-anchor="middle" font-weight="600">tanstack</text><text x="250" y="284" text-anchor="middle" fill="#888">n=10 · med 34.7</text><line x1="379.33333333333337" y1="220.64277588013866" x2="379.33333333333337" y2="105.25654156337875" stroke="#009E73" stroke-width="1.5"/><line x1="361.33333333333337" y1="105.25654156337875" x2="397.33333333333337" y2="105.25654156337875" stroke="#009E73"/><line x1="361.33333333333337" y1="220.64277588013866" x2="397.33333333333337" y2="220.64277588013866" stroke="#009E73"/><rect x="343.33333333333337" y="121.43913540874537" width="72" height="64.0173492277688" fill="#009E7322" stroke="#009E73" stroke-width="1.5"/><line x1="343.33333333333337" y1="135.07963596279268" x2="415.33333333333337" y2="135.07963596279268" stroke="#009E73" stroke-width="2.5"/><text x="379.33333333333337" y="270" text-anchor="middle" font-weight="600">swr</text><text x="379.33333333333337" y="284" text-anchor="middle" fill="#888">n=8 · med 36.9</text></svg>