<svg xmlns="http://www.w3.org/2000/svg" width="460" height="300" font-family="system-ui,sans-serif" font-size="11"><rect width="460" height="300" fill="white"/><text x="230" y="18" text-anchor="middle" font-size="13" font-weight="600">daemon · cold · ttdp_ms</text><line x1="56" y1="254" x2="444" y2="254" stroke="#eee"/><text x="50" y="257" text-anchor="end" fill="#666">9.5</text><line x1="56" y1="199.5" x2="444" y2="199.5" stroke="#eee"/><text x="50" y="202.5" text-anchor="end" fill="#666">44.3</text><line x1="56" y1="145" x2="444" y2="145" stroke="#eee"/><text x="50" y="148" text-anchor="end" fill="#666">79.0</text><line x1="56" y1="90.5" x2="444" y2="90.5" stroke="#eee"/><text x="50" y="93.5" text-anchor="end" fill="#666">113.8</text><line x1="56" y1="36" x2="444" y2="36" stroke="#eee"/><text x="50" y="39" text-anchor="end" fill="#666">148.6</text><line x1="120.66666666666667" y1="223.6386252393179" x2="120.66666666666667" y2="166.49748346141612" stroke="#0072B2" stroke-width="1.5"/><line x1="102.66666666666667" y1="166.49748346141612" x2="138.66666666666669" y2="166.49748346141612" stroke="#0072B2"/><line x1="102.66666666666667" y1="223.6386252393179" x2="138.66666666666669" y2="223.6386252393179" stroke="#0072B2"/><rect x="84.66666666666667" y="207.46261143409438" width="72" height="11.40314927244583" fill="#0072B222" stroke="#0072B2" stroke-width="1.5"/><line x1="84.66666666666667" y1="211.22447511882604" x2="156.66666666666669" y2="211.22447511882604" stroke="#0072B2" stroke-width="2.5"/><text x="120.66666666666667" y="270" text-anchor="middle" font-weight="600">tide</text><text x="120.66666666666667" y="284" text-anchor="middle" fill="#888">n=30 · med 36.8</text><line x1="250" y1="231.55421339487071" x2="250" y2="161.19952544595418" stroke="#E69F00" stroke-width="1.5"/><line x1="232" y1="161.19952544595418" x2="268" y2="161.19952544595418" stroke="#E69F00"/><line x1="232" y1="231.55421339487071" x2="268" y2="231.55421339487071" stroke="#E69F00"/><rect x="214" y="196.9215559305185" width="72" height="21.552343976502016" fill="#E69F0022" stroke="#E69F00" stroke-width="1.5"/><line x1="214" y1="209.50028758692542" x2="286" y2="209.50028758692542" stroke="#E69F00" stroke-width="2.5"/><text x="250" y="270" text-anchor="middle" font-weight="600">tanstack</text><text x="250" y="284" text-anchor="middle" fill="#888">n=30 · med 37.9</text><line x1="379.33333333333337" y1="231.91472532645818" x2="379.33333333333337" y2="142.26481162063723" stroke="#009E73" stroke-width="1.5"/><line x1="361.33333333333337" y1="142.26481162063723" x2="397.33333333333337" y2="142.26481162063723" stroke="#009E73"/><line x1="361.33333333333337" y1="231.91472532645818" x2="397.33333333333337" y2="231.91472532645818" stroke="#009E73"/><rect x="343.33333333333337" y="207.69772791730972" width="72" height="13.636755830875842" fill="#009E7322" stroke="#009E73" stroke-width="1.5"/><line x1="343.33333333333337" y1="214.75122230866396" x2="415.33333333333337" y2="214.75122230866396" stroke="#009E73" stroke-width="2.5"/><text x="379.33333333333337" y="270" text-anchor="middle" font-weight="600">swr</text><text x="379.33333333333337" y="284" text-anchor="middle" fill="#888">n=30 · med 34.6</text></svg>