<svg xmlns="http://www.w3.org/2000/svg" width="520" height="300" font-family="system-ui,sans-serif" font-size="11"><rect width="520" height="300" fill="white"/><text x="260" y="18" text-anchor="middle" font-size="13" font-weight="600">local-fast · summary · update · update_to_dom_ms</text><line x1="56" y1="254" x2="504" y2="254" stroke="#eee"/><text x="50" y="257" text-anchor="end" fill="#666">0.0</text><line x1="56" y1="199.5" x2="504" y2="199.5" stroke="#eee"/><text x="50" y="202.5" text-anchor="end" fill="#666">7.0</text><line x1="56" y1="145" x2="504" y2="145" stroke="#eee"/><text x="50" y="148" text-anchor="end" fill="#666">13.9</text><line x1="56" y1="90.5" x2="504" y2="90.5" stroke="#eee"/><text x="50" y="93.5" text-anchor="end" fill="#666">20.9</text><line x1="56" y1="36" x2="504" y2="36" stroke="#eee"/><text x="50" y="39" text-anchor="end" fill="#666">27.9</text><line x1="112" y1="248.9565997221885" x2="112" y2="134.09218075453327" stroke="#999999" stroke-width="1.5"/><rect x="78.4" y="192.03263989164265" width="67.2" height="51.02044473896399" fill="#99999922" stroke="#999999" stroke-width="1.5"/><line x1="78.4" y1="214.51291250389178" x2="145.6" y2="214.51291250389178" stroke="#999999" stroke-width="2.5"/><text x="112" y="270" text-anchor="middle" font-weight="600">vanilla</text><text x="112" y="284" text-anchor="middle" fill="#888">n=30·5.0</text><line x1="224" y1="248.9565997221885" x2="224" y2="88.19332852666932" stroke="#0072B2" stroke-width="1.5"/><rect x="190.4" y="204.73888091055215" width="67.2" height="39.09612628597179" fill="#0072B222" stroke="#0072B2" stroke-width="1.5"/><line x1="190.4" y1="235.23385937923805" x2="257.6" y2="235.23385937923805" stroke="#0072B2" stroke-width="2.5"/><text x="224" y="270" text-anchor="middle" font-weight="600">tide</text><text x="224" y="284" text-anchor="middle" fill="#888">n=30·2.4</text><line x1="336" y1="242.70121951818075" x2="336" y2="71.7338593865203" stroke="#E69F00" stroke-width="1.5"/><rect x="302.4" y="151.7636298150527" width="67.2" height="86.40243904801304" fill="#E69F0022" stroke="#E69F00" stroke-width="1.5"/><line x1="302.4" y1="207.47560976018272" x2="369.6" y2="207.47560976018272" stroke="#E69F00" stroke-width="2.5"/><text x="336" y="270" text-anchor="middle" font-weight="600">tanstack</text><text x="336" y="284" text-anchor="middle" fill="#888">n=30·5.9</text><line x1="448" y1="244.6169296750546" x2="448" y2="67.08142035088704" stroke="#009E73" stroke-width="1.5"/><rect x="414.4" y="163.88342896049977" width="67.2" height="77.21484935726474" fill="#009E7322" stroke="#009E73" stroke-width="1.5"/><line x1="414.4" y1="219.98637014489512" x2="481.6" y2="219.98637014489512" stroke="#009E73" stroke-width="2.5"/><text x="448" y="270" text-anchor="middle" font-weight="600">swr</text><text x="448" y="284" text-anchor="middle" fill="#888">n=30·4.4</text></svg>