<svg xmlns="http://www.w3.org/2000/svg" width="520" height="300" font-family="system-ui,sans-serif" font-size="11"><rect width="520" height="300" fill="white"/><text x="260" y="18" text-anchor="middle" font-size="13" font-weight="600">local-fast · summary · cold · ttdp_ms</text><line x1="56" y1="254" x2="504" y2="254" stroke="#eee"/><text x="50" y="257" text-anchor="end" fill="#666">4.3</text><line x1="56" y1="199.5" x2="504" y2="199.5" stroke="#eee"/><text x="50" y="202.5" text-anchor="end" fill="#666">54.0</text><line x1="56" y1="145" x2="504" y2="145" stroke="#eee"/><text x="50" y="148" text-anchor="end" fill="#666">103.8</text><line x1="56" y1="90.5" x2="504" y2="90.5" stroke="#eee"/><text x="50" y="93.5" text-anchor="end" fill="#666">153.5</text><line x1="56" y1="36" x2="504" y2="36" stroke="#eee"/><text x="50" y="39" text-anchor="end" fill="#666">203.2</text><line x1="112" y1="231.09158116924218" x2="112" y2="120.71565077166143" stroke="#999999" stroke-width="1.5"/><rect x="78.4" y="216.53741702150612" width="67.2" height="7.948601884698263" fill="#99999922" stroke="#999999" stroke-width="1.5"/><line x1="78.4" y1="220.86803460258685" x2="145.6" y2="220.86803460258685" stroke="#999999" stroke-width="2.5"/><text x="112" y="270" text-anchor="middle" font-weight="600">vanilla</text><text x="112" y="284" text-anchor="middle" fill="#888">n=30·34.5</text><line x1="224" y1="234.369694227602" x2="224" y2="193.99079661845528" stroke="#0072B2" stroke-width="1.5"/><rect x="190.4" y="215.0847415002604" width="67.2" height="10.305773482358887" fill="#0072B222" stroke="#0072B2" stroke-width="1.5"/><line x1="190.4" y1="221.69030375962237" x2="257.6" y2="221.69030375962237" stroke="#0072B2" stroke-width="2.5"/><text x="224" y="270" text-anchor="middle" font-weight="600">tide</text><text x="224" y="284" text-anchor="middle" fill="#888">n=30·33.8</text><line x1="336" y1="230.97098169048087" x2="336" y2="125.76986521591631" stroke="#E69F00" stroke-width="1.5"/><rect x="302.4" y="205.73828203716582" width="67.2" height="15.51347817557729" fill="#E69F0022" stroke="#E69F00" stroke-width="1.5"/><line x1="302.4" y1="215.60551197060332" x2="369.6" y2="215.60551197060332" stroke="#E69F00" stroke-width="2.5"/><text x="336" y="270" text-anchor="middle" font-weight="600">tanstack</text><text x="336" y="284" text-anchor="middle" fill="#888">n=30·39.3</text><line x1="448" y1="232.56618386885287" x2="448" y2="147.02826392422736" stroke="#009E73" stroke-width="1.5"/><rect x="414.4" y="192.41752162457465" width="67.2" height="28.149014285193175" fill="#009E7322" stroke="#009E73" stroke-width="1.5"/><line x1="414.4" y1="214.39951719932725" x2="481.6" y2="214.39951719932725" stroke="#009E73" stroke-width="2.5"/><text x="448" y="270" text-anchor="middle" font-weight="600">swr</text><text x="448" y="284" text-anchor="middle" fill="#888">n=30·40.4</text></svg>