<svg xmlns="http://www.w3.org/2000/svg" width="520" height="300" font-family="system-ui,sans-serif" font-size="11"><rect width="520" height="300" fill="white"/><text x="260" y="18" text-anchor="middle" font-size="13" font-weight="600">local-fast · announcements · update · update_to_dom_ms</text><line x1="56" y1="254" x2="504" y2="254" stroke="#eee"/><text x="50" y="257" text-anchor="end" fill="#666">0.0</text><line x1="56" y1="199.5" x2="504" y2="199.5" stroke="#eee"/><text x="50" y="202.5" text-anchor="end" fill="#666">8.0</text><line x1="56" y1="145" x2="504" y2="145" stroke="#eee"/><text x="50" y="148" text-anchor="end" fill="#666">16.0</text><line x1="56" y1="90.5" x2="504" y2="90.5" stroke="#eee"/><text x="50" y="93.5" text-anchor="end" fill="#666">24.1</text><line x1="56" y1="36" x2="504" y2="36" stroke="#eee"/><text x="50" y="39" text-anchor="end" fill="#666">32.1</text><line x1="112" y1="250.9769398617856" x2="112" y2="135.9308195448652" stroke="#999999" stroke-width="1.5"/><rect x="78.4" y="187.08507318647358" width="67.2" height="61.310377088516134" fill="#99999922" stroke="#999999" stroke-width="1.5"/><line x1="78.4" y1="209.50327203589998" x2="145.6" y2="209.50327203589998" stroke="#999999" stroke-width="2.5"/><text x="112" y="270" text-anchor="middle" font-weight="600">vanilla</text><text x="112" y="284" text-anchor="middle" fill="#888">n=30·6.6</text><line x1="224" y1="249.9239638409575" x2="224" y2="93.60797752634934" stroke="#0072B2" stroke-width="1.5"/><rect x="190.4" y="156.51480210753792" width="67.2" height="65.38641323490495" fill="#0072B222" stroke="#0072B2" stroke-width="1.5"/><line x1="190.4" y1="177.23465249831276" x2="257.6" y2="177.23465249831276" stroke="#0072B2" stroke-width="2.5"/><text x="224" y="270" text-anchor="middle" font-weight="600">tide</text><text x="224" y="284" text-anchor="middle" fill="#888">n=28·11.3</text><line x1="336" y1="247.8859457867436" x2="336" y2="142.14677466083214" stroke="#E69F00" stroke-width="1.5"/><rect x="302.4" y="191.16110937082343" width="67.2" height="50.610782202663785" fill="#E69F0022" stroke="#E69F00" stroke-width="1.5"/><line x1="302.4" y1="217.65534432867764" x2="369.6" y2="217.65534432867764" stroke="#E69F00" stroke-width="2.5"/><text x="336" y="270" text-anchor="middle" font-weight="600">tanstack</text><text x="336" y="284" text-anchor="middle" fill="#888">n=30·5.4</text><line x1="448" y1="249.9239638687956" x2="448" y2="115.65253972575458" stroke="#009E73" stroke-width="1.5"/><rect x="414.4" y="180.12184480083297" width="67.2" height="63.518229972145406" fill="#009E7322" stroke="#009E73" stroke-width="1.5"/><line x1="414.4" y1="214.25864753791134" x2="481.6" y2="214.25864753791134" stroke="#009E73" stroke-width="2.5"/><text x="448" y="270" text-anchor="middle" font-weight="600">swr</text><text x="448" y="284" text-anchor="middle" fill="#888">n=30·5.9</text></svg>