<svg xmlns="http://www.w3.org/2000/svg" width="520" height="300" font-family="system-ui,sans-serif" font-size="11"><rect width="520" height="300" fill="white"/><text x="260" y="18" text-anchor="middle" font-size="13" font-weight="600">local-fast · stack · steady · js_heap_mb</text><line x1="56" y1="254" x2="504" y2="254" stroke="#eee"/><text x="50" y="257" text-anchor="end" fill="#666">3.0</text><line x1="56" y1="199.5" x2="504" y2="199.5" stroke="#eee"/><text x="50" y="202.5" text-anchor="end" fill="#666">3.3</text><line x1="56" y1="145" x2="504" y2="145" stroke="#eee"/><text x="50" y="148" text-anchor="end" fill="#666">3.6</text><line x1="56" y1="90.5" x2="504" y2="90.5" stroke="#eee"/><text x="50" y="93.5" text-anchor="end" fill="#666">3.9</text><line x1="56" y1="36" x2="504" y2="36" stroke="#eee"/><text x="50" y="39" text-anchor="end" fill="#666">4.1</text><line x1="112" y1="234.81466394922" x2="112" y2="224.07223141042604" stroke="#999999" stroke-width="1.5"/><rect x="78.4" y="229.32854472421818" width="67.2" height="4.191383217646774" fill="#99999922" stroke="#999999" stroke-width="1.5"/><line x1="78.4" y1="232.12859357719108" x2="145.6" y2="232.12859357719108" stroke="#999999" stroke-width="2.5"/><text x="112" y="270" text-anchor="middle" font-weight="600">vanilla</text><text x="112" y="284" text-anchor="middle" fill="#888">n=30·3.1</text><line x1="224" y1="220.19073209911727" x2="224" y2="208.04351408933306" stroke="#0072B2" stroke-width="1.5"/><rect x="190.4" y="214.88395171358587" width="67.2" height="2.7444417021189906" fill="#0072B222" stroke="#0072B2" stroke-width="1.5"/><line x1="190.4" y1="215.36916223936598" x2="257.6" y2="215.36916223936598" stroke="#0072B2" stroke-width="2.5"/><text x="224" y="270" text-anchor="middle" font-weight="600">tide</text><text x="224" y="284" text-anchor="middle" fill="#888">n=30·3.2</text><line x1="336" y1="144.31745111310147" x2="336" y2="59.48553918076278" stroke="#E69F00" stroke-width="1.5"/><rect x="302.4" y="132.31639254720758" width="67.2" height="8.807470094516901" fill="#E69F0022" stroke="#E69F00" stroke-width="1.5"/><line x1="302.4" y1="139.09667460527476" x2="369.6" y2="139.09667460527476" stroke="#E69F00" stroke-width="2.5"/><text x="336" y="270" text-anchor="middle" font-weight="600">tanstack</text><text x="336" y="284" text-anchor="middle" fill="#888">n=30·3.6</text><line x1="448" y1="201.3418123774435" x2="448" y2="193.72103493666077" stroke="#009E73" stroke-width="1.5"/><rect x="414.4" y="196.9068485761394" width="67.2" height="2.824686102686229" fill="#009E7322" stroke="#009E73" stroke-width="1.5"/><line x1="414.4" y1="198.13510561062824" x2="481.6" y2="198.13510561062824" stroke="#009E73" stroke-width="2.5"/><text x="448" y="270" text-anchor="middle" font-weight="600">swr</text><text x="448" y="284" text-anchor="middle" fill="#888">n=30·3.3</text></svg>