<svg xmlns="http://www.w3.org/2000/svg" width="520" height="300" font-family="system-ui,sans-serif" font-size="11"><rect width="520" height="300" fill="white"/><text x="260" y="18" text-anchor="middle" font-size="13" font-weight="600">local-fast · announcements · cold · fcp_ms</text><line x1="56" y1="254" x2="504" y2="254" stroke="#eee"/><text x="50" y="257" text-anchor="end" fill="#666">15.2</text><line x1="56" y1="199.5" x2="504" y2="199.5" stroke="#eee"/><text x="50" y="202.5" text-anchor="end" fill="#666">40.9</text><line x1="56" y1="145" x2="504" y2="145" stroke="#eee"/><text x="50" y="148" text-anchor="end" fill="#666">66.6</text><line x1="56" y1="90.5" x2="504" y2="90.5" stroke="#eee"/><text x="50" y="93.5" text-anchor="end" fill="#666">92.2</text><line x1="56" y1="36" x2="504" y2="36" stroke="#eee"/><text x="50" y="39" text-anchor="end" fill="#666">117.9</text><line x1="112" y1="216.18996100126768" x2="112" y2="115.26403508809439" stroke="#999999" stroke-width="1.5"/><rect x="78.4" y="191.95711500486317" width="67.2" height="17.794834298526183" fill="#99999922" stroke="#999999" stroke-width="1.5"/><line x1="78.4" y1="198.75633527163438" x2="145.6" y2="198.75633527163438" stroke="#999999" stroke-width="2.5"/><text x="112" y="270" text-anchor="middle" font-weight="600">vanilla</text><text x="112" y="284" text-anchor="middle" fill="#888">n=10·41.3</text><line x1="224" y1="225.33703702718685" x2="224" y2="167.20370369701965" stroke="#0072B2" stroke-width="1.5"/><rect x="190.4" y="203.32456139684322" width="67.2" height="11.686159843036222" fill="#0072B222" stroke="#0072B2" stroke-width="1.5"/><line x1="190.4" y1="207.9990253245593" x2="257.6" y2="207.9990253245593" stroke="#0072B2" stroke-width="2.5"/><text x="224" y="270" text-anchor="middle" font-weight="600">tide</text><text x="224" y="284" text-anchor="middle" fill="#888">n=13·36.9</text><line x1="336" y1="226.99434697426193" x2="336" y2="188.8762183245125" stroke="#E69F00" stroke-width="1.5"/><rect x="302.4" y="199.5" width="67.2" height="16.148148134076422" fill="#E69F0022" stroke="#E69F00" stroke-width="1.5"/><line x1="302.4" y1="208.63645223458698" x2="369.6" y2="208.63645223458698" stroke="#E69F00" stroke-width="2.5"/><text x="336" y="270" text-anchor="middle" font-weight="600">tanstack</text><text x="336" y="284" text-anchor="middle" fill="#888">n=17·36.6</text><line x1="448" y1="232.5187134423493" x2="448" y2="149.01578947618387" stroke="#009E73" stroke-width="1.5"/><rect x="414.4" y="207.99902534039" width="67.2" height="17.84795321165285" fill="#009E7322" stroke="#009E73" stroke-width="1.5"/><line x1="414.4" y1="215.01072123987944" x2="481.6" y2="215.01072123987944" stroke="#009E73" stroke-width="2.5"/><text x="448" y="270" text-anchor="middle" font-weight="600">swr</text><text x="448" y="284" text-anchor="middle" fill="#888">n=13·33.6</text></svg>