<svg xmlns="http://www.w3.org/2000/svg" width="520" height="300" font-family="system-ui,sans-serif" font-size="11"><rect width="520" height="300" fill="white"/><text x="260" y="18" text-anchor="middle" font-size="13" font-weight="600">local-fast · daemon · cold · ttdp_ms</text><line x1="56" y1="254" x2="504" y2="254" stroke="#eee"/><text x="50" y="257" text-anchor="end" fill="#666">10.2</text><line x1="56" y1="199.5" x2="504" y2="199.5" stroke="#eee"/><text x="50" y="202.5" text-anchor="end" fill="#666">42.8</text><line x1="56" y1="145" x2="504" y2="145" stroke="#eee"/><text x="50" y="148" text-anchor="end" fill="#666">75.4</text><line x1="56" y1="90.5" x2="504" y2="90.5" stroke="#eee"/><text x="50" y="93.5" text-anchor="end" fill="#666">108.0</text><line x1="56" y1="36" x2="504" y2="36" stroke="#eee"/><text x="50" y="39" text-anchor="end" fill="#666">140.6</text><line x1="112" y1="227.75368323556114" x2="112" y2="151.86686617575035" stroke="#999999" stroke-width="1.5"/><rect x="78.4" y="184.01818600234054" width="67.2" height="29.817756285386793" fill="#99999922" stroke="#999999" stroke-width="1.5"/><line x1="78.4" y1="201.12262123041882" x2="145.6" y2="201.12262123041882" stroke="#999999" stroke-width="2.5"/><text x="112" y="270" text-anchor="middle" font-weight="600">vanilla</text><text x="112" y="284" text-anchor="middle" fill="#888">n=30·41.9</text><line x1="224" y1="220.47697973645788" x2="224" y2="147.7935850148993" stroke="#0072B2" stroke-width="1.5"/><rect x="190.4" y="183.01450275867816" width="67.2" height="26.137584396112686" fill="#0072B222" stroke="#0072B2" stroke-width="1.5"/><line x1="190.4" y1="202.54450582456852" x2="257.6" y2="202.54450582456852" stroke="#0072B2" stroke-width="2.5"/><text x="224" y="270" text-anchor="middle" font-weight="600">tide</text><text x="224" y="284" text-anchor="middle" fill="#888">n=30·41.0</text><line x1="336" y1="219.77440146402472" x2="336" y2="139.10336095376604" stroke="#E69F00" stroke-width="1.5"/><rect x="302.4" y="180.37983424873826" width="67.2" height="29.73411601715884" fill="#E69F0022" stroke="#E69F00" stroke-width="1.5"/><line x1="302.4" y1="197.024247996889" x2="369.6" y2="197.024247996889" stroke="#E69F00" stroke-width="2.5"/><text x="336" y="270" text-anchor="middle" font-weight="600">tanstack</text><text x="336" y="284" text-anchor="middle" fill="#888">n=30·44.3</text><line x1="448" y1="224.0484192704924" x2="448" y2="119.38934929528143" stroke="#009E73" stroke-width="1.5"/><rect x="414.4" y="160.84983117661622" width="67.2" height="48.34407612319404" fill="#009E7322" stroke="#009E73" stroke-width="1.5"/><line x1="414.4" y1="190.416666660435" x2="481.6" y2="190.416666660435" stroke="#009E73" stroke-width="2.5"/><text x="448" y="270" text-anchor="middle" font-weight="600">swr</text><text x="448" y="284" text-anchor="middle" fill="#888">n=30·48.3</text></svg>