<svg xmlns="http://www.w3.org/2000/svg" width="520" height="300" font-family="system-ui,sans-serif" font-size="11"><rect width="520" height="300" fill="white"/><text x="260" y="18" text-anchor="middle" font-size="13" font-weight="600">local-fast · summary · revisit · ttdp_ms</text><line x1="56" y1="254" x2="504" y2="254" stroke="#eee"/><text x="50" y="257" text-anchor="end" fill="#666">0.0</text><line x1="56" y1="199.5" x2="504" y2="199.5" stroke="#eee"/><text x="50" y="202.5" text-anchor="end" fill="#666">86.2</text><line x1="56" y1="145" x2="504" y2="145" stroke="#eee"/><text x="50" y="148" text-anchor="end" fill="#666">172.4</text><line x1="56" y1="90.50000000000003" x2="504" y2="90.50000000000003" stroke="#eee"/><text x="50" y="93.50000000000003" text-anchor="end" fill="#666">258.6</text><line x1="56" y1="36" x2="504" y2="36" stroke="#eee"/><text x="50" y="39" text-anchor="end" fill="#666">344.8</text><line x1="112" y1="240.757511601389" x2="112" y2="230.06299303900997" stroke="#999999" stroke-width="1.5"/><rect x="78.4" y="234.06830046489313" width="67.2" height="4.75768561510526" fill="#99999922" stroke="#999999" stroke-width="1.5"/><line x1="78.4" y1="236.54988399205703" x2="145.6" y2="236.54988399205703" stroke="#999999" stroke-width="2.5"/><text x="112" y="270" text-anchor="middle" font-weight="600">vanilla</text><text x="112" y="284" text-anchor="middle" fill="#888">n=30·27.6</text><line x1="224" y1="243.2707076568488" x2="224" y2="227.5750870101909" stroke="#0072B2" stroke-width="1.5"/><rect x="190.4" y="234.60571345769932" width="67.2" height="7.239269139913915" fill="#0072B222" stroke="#0072B2" stroke-width="1.5"/><line x1="190.4" y1="240.53306264448233" x2="257.6" y2="240.53306264448233" stroke="#0072B2" stroke-width="2.5"/><text x="224" y="270" text-anchor="middle" font-weight="600">tide</text><text x="224" y="284" text-anchor="middle" fill="#888">n=30·21.3</text><line x1="336" y1="237.9503190234742" x2="336" y2="203.83407772557734" stroke="#E69F00" stroke-width="1.5"/><rect x="302.4" y="225.8174303924255" width="67.2" height="9.863109050886294" fill="#E69F0022" stroke="#E69F00" stroke-width="1.5"/><line x1="302.4" y1="232.9776682133662" x2="369.6" y2="232.9776682133662" stroke="#E69F00" stroke-width="2.5"/><text x="336" y="270" text-anchor="middle" font-weight="600">tanstack</text><text x="336" y="284" text-anchor="middle" fill="#888">n=30·33.3</text><line x1="448" y1="240.78280162449678" x2="448" y2="205.93947215789467" stroke="#009E73" stroke-width="1.5"/><rect x="414.4" y="221.04393851493876" width="67.2" height="16.707221580624832" fill="#009E7322" stroke="#009E73" stroke-width="1.5"/><line x1="414.4" y1="232.31380510384358" x2="481.6" y2="232.31380510384358" stroke="#009E73" stroke-width="2.5"/><text x="448" y="270" text-anchor="middle" font-weight="600">swr</text><text x="448" y="284" text-anchor="middle" fill="#888">n=30·34.3</text></svg>