<svg xmlns="http://www.w3.org/2000/svg" width="520" height="300" font-family="system-ui,sans-serif" font-size="11"><rect width="520" height="300" fill="white"/><text x="260" y="18" text-anchor="middle" font-size="13" font-weight="600">local-fast · announcements · cold · ttdp_ms</text><line x1="56" y1="254" x2="504" y2="254" stroke="#eee"/><text x="50" y="257" text-anchor="end" fill="#666">4.4</text><line x1="56" y1="199.5" x2="504" y2="199.5" stroke="#eee"/><text x="50" y="202.5" text-anchor="end" fill="#666">48.5</text><line x1="56" y1="145" x2="504" y2="145" stroke="#eee"/><text x="50" y="148" text-anchor="end" fill="#666">92.7</text><line x1="56" y1="90.5" x2="504" y2="90.5" stroke="#eee"/><text x="50" y="93.5" text-anchor="end" fill="#666">136.8</text><line x1="56" y1="36" x2="504" y2="36" stroke="#eee"/><text x="50" y="39" text-anchor="end" fill="#666">180.9</text><line x1="112" y1="225.55206208754555" x2="112" y2="173.99133242754695" stroke="#999999" stroke-width="1.5"/><rect x="78.4" y="209.3119759784873" width="67.2" height="12.53512350368743" fill="#99999922" stroke="#999999" stroke-width="1.5"/><line x1="78.4" y1="218.1112621828629" x2="145.6" y2="218.1112621828629" stroke="#999999" stroke-width="2.5"/><text x="112" y="270" text-anchor="middle" font-weight="600">vanilla</text><text x="112" y="284" text-anchor="middle" fill="#888">n=30·33.4</text><line x1="224" y1="232.11602085471077" x2="224" y2="175.60916610141282" stroke="#0072B2" stroke-width="1.5"/><rect x="190.4" y="206.625878089605" width="67.2" height="15.49909358329137" fill="#0072B222" stroke="#0072B2" stroke-width="1.5"/><line x1="190.4" y1="218.35825968930484" x2="257.6" y2="218.35825968930484" stroke="#0072B2" stroke-width="2.5"/><text x="224" y="270" text-anchor="middle" font-weight="600">tide</text><text x="224" y="284" text-anchor="middle" fill="#888">n=30·33.3</text><line x1="336" y1="223.48963290714488" x2="336" y2="174.38652844521522" stroke="#E69F00" stroke-width="1.5"/><rect x="302.4" y="194.49212553676116" width="67.2" height="20.59341717493507" fill="#E69F0022" stroke="#E69F00" stroke-width="1.5"/><line x1="302.4" y1="209.96034444267394" x2="369.6" y2="209.96034444267394" stroke="#E69F00" stroke-width="2.5"/><text x="336" y="270" text-anchor="middle" font-weight="600">tanstack</text><text x="336" y="284" text-anchor="middle" fill="#888">n=30·40.0</text><line x1="448" y1="229.73249490167342" x2="448" y2="159.7889757579066" stroke="#009E73" stroke-width="1.5"/><rect x="414.4" y="208.72535690356307" width="67.2" height="11.825005666340871" fill="#009E7322" stroke="#009E73" stroke-width="1.5"/><line x1="414.4" y1="215.2707908472786" x2="481.6" y2="215.2707908472786" stroke="#009E73" stroke-width="2.5"/><text x="448" y="270" text-anchor="middle" font-weight="600">swr</text><text x="448" y="284" text-anchor="middle" fill="#888">n=30·35.8</text></svg>