<svg xmlns="http://www.w3.org/2000/svg" width="520" height="300" font-family="system-ui,sans-serif" font-size="11"><rect width="520" height="300" fill="white"/><text x="260" y="18" text-anchor="middle" font-size="13" font-weight="600">local-fast · dashboard · cold · fcp_ms</text><line x1="56" y1="254" x2="504" y2="254" stroke="#eee"/><text x="50" y="257" text-anchor="end" fill="#666">20.8</text><line x1="56" y1="199.5" x2="504" y2="199.5" stroke="#eee"/><text x="50" y="202.5" text-anchor="end" fill="#666">30.4</text><line x1="56" y1="144.99999999999997" x2="504" y2="144.99999999999997" stroke="#eee"/><text x="50" y="147.99999999999997" text-anchor="end" fill="#666">40.1</text><line x1="56" y1="90.50000000000003" x2="504" y2="90.50000000000003" stroke="#eee"/><text x="50" y="93.50000000000003" text-anchor="end" fill="#666">49.7</text><line x1="56" y1="36" x2="504" y2="36" stroke="#eee"/><text x="50" y="39" text-anchor="end" fill="#666">59.3</text><line x1="112" y1="198.93406023691216" x2="112" y2="99.89460020387503" stroke="#999999" stroke-width="1.5"/><rect x="78.4" y="140.1895119547214" width="67.2" height="21.505711300930784" fill="#99999922" stroke="#999999" stroke-width="1.5"/><line x1="78.4" y1="152.64018690288344" x2="145.6" y2="152.64018690288344" stroke="#999999" stroke-width="2.5"/><text x="112" y="270" text-anchor="middle" font-weight="600">vanilla</text><text x="112" y="284" text-anchor="middle" fill="#888">n=13·38.7</text><line x1="224" y1="194.74610592428368" x2="224" y2="84.38785045239378" stroke="#0072B2" stroke-width="1.5"/><rect x="190.4" y="133.9641744595575" width="67.2" height="56.028037414309324" fill="#0072B222" stroke="#0072B2" stroke-width="1.5"/><line x1="190.4" y1="163.39304259551463" x2="257.6" y2="163.39304259551463" stroke="#0072B2" stroke-width="2.5"/><text x="224" y="270" text-anchor="middle" font-weight="600">tide</text><text x="224" y="284" text-anchor="middle" fill="#888">n=13·36.8</text><line x1="336" y1="225.92938730220018" x2="336" y2="93.38629284825012" stroke="#E69F00" stroke-width="1.5"/><rect x="302.4" y="134.81308412948874" width="67.2" height="73.85514016662114" fill="#E69F0022" stroke="#E69F00" stroke-width="1.5"/><line x1="302.4" y1="162.26116303560636" x2="369.6" y2="162.26116303560636" stroke="#E69F00" stroke-width="2.5"/><text x="336" y="270" text-anchor="middle" font-weight="600">tanstack</text><text x="336" y="284" text-anchor="middle" fill="#888">n=19·37.0</text><line x1="448" y1="233.4280893043692" x2="448" y2="100.29075805405942" stroke="#009E73" stroke-width="1.5"/><rect x="414.4" y="122.50389411577379" width="67.2" height="78.66562818027535" fill="#009E7322" stroke="#009E73" stroke-width="1.5"/><line x1="414.4" y1="178.67341640128151" x2="481.6" y2="178.67341640128151" stroke="#009E73" stroke-width="2.5"/><text x="448" y="270" text-anchor="middle" font-weight="600">swr</text><text x="448" y="284" text-anchor="middle" fill="#888">n=18·34.1</text></svg>