<svg xmlns="http://www.w3.org/2000/svg" width="520" height="300" font-family="system-ui,sans-serif" font-size="11"><rect width="520" height="300" fill="white"/><text x="260" y="18" text-anchor="middle" font-size="13" font-weight="600">local-fast · stack · cold · fcp_ms</text><line x1="56" y1="254" x2="504" y2="254" stroke="#eee"/><text x="50" y="257" text-anchor="end" fill="#666">13.9</text><line x1="56" y1="199.5" x2="504" y2="199.5" stroke="#eee"/><text x="50" y="202.5" text-anchor="end" fill="#666">36.7</text><line x1="56" y1="145" x2="504" y2="145" stroke="#eee"/><text x="50" y="148" text-anchor="end" fill="#666">59.5</text><line x1="56" y1="90.50000000000003" x2="504" y2="90.50000000000003" stroke="#eee"/><text x="50" y="93.50000000000003" text-anchor="end" fill="#666">82.3</text><line x1="56" y1="36" x2="504" y2="36" stroke="#eee"/><text x="50" y="39" text-anchor="end" fill="#666">105.1</text><line x1="112" y1="227.7061403508772" x2="112" y2="96.22489035693249" stroke="#999999" stroke-width="1.5"/><rect x="78.4" y="177.2099780603802" width="67.2" height="42.727521947634074" fill="#99999922" stroke="#999999" stroke-width="1.5"/><line x1="78.4" y1="199.7390350841574" x2="145.6" y2="199.7390350841574" stroke="#999999" stroke-width="2.5"/><text x="112" y="270" text-anchor="middle" font-weight="600">vanilla</text><text x="112" y="284" text-anchor="middle" fill="#888">n=18·36.6</text><line x1="224" y1="224.1206140386496" x2="224" y2="107.90175438881444" stroke="#0072B2" stroke-width="1.5"/><rect x="190.4" y="165.07894736485915" width="67.2" height="43.74342106331727" fill="#0072B222" stroke="#0072B2" stroke-width="1.5"/><line x1="190.4" y1="197.58771929824562" x2="257.6" y2="197.58771929824562" stroke="#0072B2" stroke-width="2.5"/><text x="224" y="270" text-anchor="middle" font-weight="600">tide</text><text x="224" y="284" text-anchor="middle" fill="#888">n=17·37.5</text><line x1="336" y1="216.83004385964912" x2="336" y2="151.90811402582676" stroke="#E69F00" stroke-width="1.5"/><rect x="302.4" y="185.7554824579213" width="67.2" height="24.381578945587478" fill="#E69F0022" stroke="#E69F00" stroke-width="1.5"/><line x1="302.4" y1="203.80263158250926" x2="369.6" y2="203.80263158250926" stroke="#E69F00" stroke-width="2.5"/><text x="336" y="270" text-anchor="middle" font-weight="600">tanstack</text><text x="336" y="284" text-anchor="middle" fill="#888">n=19·34.9</text><line x1="448" y1="220.51118421195108" x2="448" y2="154.7167763216666" stroke="#009E73" stroke-width="1.5"/><rect x="414.4" y="190.59594298957992" width="67.2" height="21.69243419984062" fill="#009E7322" stroke="#009E73" stroke-width="1.5"/><line x1="414.4" y1="200.456140358001" x2="481.6" y2="200.456140358001" stroke="#009E73" stroke-width="2.5"/><text x="448" y="270" text-anchor="middle" font-weight="600">swr</text><text x="448" y="284" text-anchor="middle" fill="#888">n=14·36.3</text></svg>