<svg xmlns="http://www.w3.org/2000/svg" width="520" height="300" font-family="system-ui,sans-serif" font-size="11"><rect width="520" height="300" fill="white"/><text x="260" y="18" text-anchor="middle" font-size="13" font-weight="600">local-fast · summary · steady · js_heap_mb</text><line x1="56" y1="254" x2="504" y2="254" stroke="#eee"/><text x="50" y="257" text-anchor="end" fill="#666">3.1</text><line x1="56" y1="199.50000000000006" x2="504" y2="199.50000000000006" stroke="#eee"/><text x="50" y="202.50000000000006" text-anchor="end" fill="#666">3.3</text><line x1="56" y1="145" x2="504" y2="145" stroke="#eee"/><text x="50" y="148" text-anchor="end" fill="#666">3.5</text><line x1="56" y1="90.49999999999994" x2="504" y2="90.49999999999994" stroke="#eee"/><text x="50" y="93.49999999999994" text-anchor="end" fill="#666">3.7</text><line x1="56" y1="36" x2="504" y2="36" stroke="#eee"/><text x="50" y="39" text-anchor="end" fill="#666">3.9</text><line x1="112" y1="235.26611527828325" x2="112" y2="220.8452610336519" stroke="#999999" stroke-width="1.5"/><rect x="78.4" y="228.0090469653271" width="67.2" height="6.367388989070008" fill="#99999922" stroke="#999999" stroke-width="1.5"/><line x1="78.4" y1="232.08304365301368" x2="145.6" y2="232.08304365301368" stroke="#999999" stroke-width="2.5"/><text x="112" y="270" text-anchor="middle" font-weight="600">vanilla</text><text x="112" y="284" text-anchor="middle" fill="#888">n=30·3.2</text><line x1="224" y1="211.76966114644614" x2="224" y2="198.22190926940812" stroke="#0072B2" stroke-width="1.5"/><rect x="190.4" y="203.0980382305602" width="67.2" height="5.884819483898298" fill="#0072B222" stroke="#0072B2" stroke-width="1.5"/><line x1="190.4" y1="205.3514682265952" x2="257.6" y2="205.3514682265952" stroke="#0072B2" stroke-width="2.5"/><text x="224" y="270" text-anchor="middle" font-weight="600">tide</text><text x="224" y="284" text-anchor="middle" fill="#888">n=30·3.3</text><line x1="336" y1="96.999683954245" x2="336" y2="56.54817338453436" stroke="#E69F00" stroke-width="1.5"/><rect x="302.4" y="64.64462278643497" width="67.2" height="27.293822861389813" fill="#E69F0022" stroke="#E69F00" stroke-width="1.5"/><line x1="302.4" y1="87.26001909174356" x2="369.6" y2="87.26001909174356" stroke="#E69F00" stroke-width="2.5"/><text x="336" y="270" text-anchor="middle" font-weight="600">tanstack</text><text x="336" y="284" text-anchor="middle" fill="#888">n=30·3.7</text><line x1="448" y1="171.5612669349831" x2="448" y2="129.58895629991324" stroke="#009E73" stroke-width="1.5"/><rect x="414.4" y="137.18958943246196" width="67.2" height="29.158175412296544" fill="#009E7322" stroke="#009E73" stroke-width="1.5"/><line x1="414.4" y1="139.51110335612756" x2="481.6" y2="139.51110335612756" stroke="#009E73" stroke-width="2.5"/><text x="448" y="270" text-anchor="middle" font-weight="600">swr</text><text x="448" y="284" text-anchor="middle" fill="#888">n=30·3.5</text></svg>