<svg xmlns="http://www.w3.org/2000/svg" width="520" height="300" font-family="system-ui,sans-serif" font-size="11"><rect width="520" height="300" fill="white"/><text x="260" y="18" text-anchor="middle" font-size="13" font-weight="600">local-fast · stack · cold · ttdp_ms</text><line x1="56" y1="254" x2="504" y2="254" stroke="#eee"/><text x="50" y="257" text-anchor="end" fill="#666">9.9</text><line x1="56" y1="199.5" x2="504" y2="199.5" stroke="#eee"/><text x="50" y="202.5" text-anchor="end" fill="#666">45.1</text><line x1="56" y1="145" x2="504" y2="145" stroke="#eee"/><text x="50" y="148" text-anchor="end" fill="#666">80.3</text><line x1="56" y1="90.5" x2="504" y2="90.5" stroke="#eee"/><text x="50" y="93.5" text-anchor="end" fill="#666">115.4</text><line x1="56" y1="36" x2="504" y2="36" stroke="#eee"/><text x="50" y="39" text-anchor="end" fill="#666">150.6</text><line x1="112" y1="232.55775789110308" x2="112" y2="71.96938050097" stroke="#999999" stroke-width="1.5"/><rect x="78.4" y="164.35919295591995" width="67.2" height="56.606280187174576" fill="#99999922" stroke="#999999" stroke-width="1.5"/><line x1="78.4" y1="206.5622335906519" x2="145.6" y2="206.5622335906519" stroke="#999999" stroke-width="2.5"/><text x="112" y="270" text-anchor="middle" font-weight="600">vanilla</text><text x="112" y="284" text-anchor="middle" fill="#888">n=30·40.5</text><line x1="224" y1="232.8984796829225" x2="224" y2="119.174836602959" stroke="#0072B2" stroke-width="1.5"/><rect x="190.4" y="194.8692810487495" width="67.2" height="28.845197500022437" fill="#0072B222" stroke="#0072B2" stroke-width="1.5"/><line x1="190.4" y1="218.8746803076284" x2="257.6" y2="218.8746803076284" stroke="#0072B2" stroke-width="2.5"/><text x="224" y="270" text-anchor="middle" font-weight="600">tide</text><text x="224" y="284" text-anchor="middle" fill="#888">n=30·32.6</text><line x1="336" y1="228.84079284642814" x2="336" y2="167.62702472373832" stroke="#E69F00" stroke-width="1.5"/><rect x="302.4" y="203.69707303417965" width="67.2" height="10.10549871917658" fill="#E69F0022" stroke="#E69F00" stroke-width="1.5"/><line x1="302.4" y1="209.34995737704287" x2="369.6" y2="209.34995737704287" stroke="#E69F00" stroke-width="2.5"/><text x="336" y="270" text-anchor="middle" font-weight="600">tanstack</text><text x="336" y="284" text-anchor="middle" fill="#888">n=30·38.7</text><line x1="448" y1="220.85706167132716" x2="448" y2="156.50710429255344" stroke="#009E73" stroke-width="1.5"/><rect x="414.4" y="185.49943165544184" width="67.2" height="29.309818132049173" fill="#009E7322" stroke="#009E73" stroke-width="1.5"/><line x1="414.4" y1="208.88533674501613" x2="481.6" y2="208.88533674501613" stroke="#009E73" stroke-width="2.5"/><text x="448" y="270" text-anchor="middle" font-weight="600">swr</text><text x="448" y="284" text-anchor="middle" fill="#888">n=30·39.0</text></svg>