<svg xmlns="http://www.w3.org/2000/svg" width="520" height="300" font-family="system-ui,sans-serif" font-size="11"><rect width="520" height="300" fill="white"/><text x="260" y="18" text-anchor="middle" font-size="13" font-weight="600">local-fast · announcements · revisit · ttdp_ms</text><line x1="56" y1="254" x2="504" y2="254" stroke="#eee"/><text x="50" y="257" text-anchor="end" fill="#666">7.5</text><line x1="56" y1="199.5" x2="504" y2="199.5" stroke="#eee"/><text x="50" y="202.5" text-anchor="end" fill="#666">31.5</text><line x1="56" y1="145" x2="504" y2="145" stroke="#eee"/><text x="50" y="148" text-anchor="end" fill="#666">55.6</text><line x1="56" y1="90.5" x2="504" y2="90.5" stroke="#eee"/><text x="50" y="93.5" text-anchor="end" fill="#666">79.6</text><line x1="56" y1="36" x2="504" y2="36" stroke="#eee"/><text x="50" y="39" text-anchor="end" fill="#666">103.6</text><line x1="112" y1="218.2676862175982" x2="112" y2="113.25936330086411" stroke="#999999" stroke-width="1.5"/><rect x="78.4" y="192.17436538164924" width="67.2" height="14.458489392220145" fill="#99999922" stroke="#999999" stroke-width="1.5"/><line x1="78.4" y1="200.56595921661088" x2="145.6" y2="200.56595921661088" stroke="#999999" stroke-width="2.5"/><text x="112" y="270" text-anchor="middle" font-weight="600">vanilla</text><text x="112" y="284" text-anchor="middle" fill="#888">n=30·31.1</text><line x1="224" y1="233.69007490826567" x2="224" y2="199.53401996962324" stroke="#0072B2" stroke-width="1.5"/><rect x="190.4" y="214.79764877613877" width="67.2" height="14.004889718386636" fill="#0072B222" stroke="#0072B2" stroke-width="1.5"/><line x1="190.4" y1="222.90574282340344" x2="257.6" y2="222.90574282340344" stroke="#0072B2" stroke-width="2.5"/><text x="224" y="270" text-anchor="middle" font-weight="600">tide</text><text x="224" y="284" text-anchor="middle" fill="#888">n=30·21.2</text><line x1="336" y1="217.63264669112914" x2="336" y2="84.30836455018013" stroke="#E69F00" stroke-width="1.5"/><rect x="302.4" y="156.45339159954221" width="67.2" height="51.37016230124232" fill="#E69F0022" stroke="#E69F00" stroke-width="1.5"/><line x1="302.4" y1="195.57636288048255" x2="369.6" y2="195.57636288048255" stroke="#E69F00" stroke-width="2.5"/><text x="336" y="270" text-anchor="middle" font-weight="600">tanstack</text><text x="336" y="284" text-anchor="middle" fill="#888">n=30·33.3</text><line x1="448" y1="218.49448606211902" x2="448" y2="94.71847690159508" stroke="#009E73" stroke-width="1.5"/><rect x="414.4" y="176.52517686251394" width="67.2" height="37.25187266862176" fill="#009E7322" stroke="#009E73" stroke-width="1.5"/><line x1="414.4" y1="199.5453599589344" x2="481.6" y2="199.5453599589344" stroke="#009E73" stroke-width="2.5"/><text x="448" y="270" text-anchor="middle" font-weight="600">swr</text><text x="448" y="284" text-anchor="middle" fill="#888">n=30·31.5</text></svg>