<svg xmlns="http://www.w3.org/2000/svg" width="520" height="300" font-family="system-ui,sans-serif" font-size="11"><rect width="520" height="300" fill="white"/><text x="260" y="18" text-anchor="middle" font-size="13" font-weight="600">local-fast · tooling · update · update_to_dom_ms</text><line x1="56" y1="254" x2="504" y2="254" stroke="#eee"/><text x="50" y="257" text-anchor="end" fill="#666">0.0</text><line x1="56" y1="199.5" x2="504" y2="199.5" stroke="#eee"/><text x="50" y="202.5" text-anchor="end" fill="#666">6.8</text><line x1="56" y1="145" x2="504" y2="145" stroke="#eee"/><text x="50" y="148" text-anchor="end" fill="#666">13.6</text><line x1="56" y1="90.5" x2="504" y2="90.5" stroke="#eee"/><text x="50" y="93.5" text-anchor="end" fill="#666">20.4</text><line x1="56" y1="36" x2="504" y2="36" stroke="#eee"/><text x="50" y="39" text-anchor="end" fill="#666">27.2</text><line x1="112" y1="248.83621004451143" x2="112" y2="174.98200512650678" stroke="#999999" stroke-width="1.5"/><rect x="78.4" y="221.77634960753403" width="67.2" height="23.81748073459144" fill="#99999922" stroke="#999999" stroke-width="1.5"/><line x1="78.4" y1="232.7844289480461" x2="145.6" y2="232.7844289480461" stroke="#999999" stroke-width="2.5"/><text x="112" y="270" text-anchor="middle" font-weight="600">vanilla</text><text x="112" y="284" text-anchor="middle" fill="#888">n=30·2.6</text><line x1="224" y1="249.71685642455904" x2="224" y2="128.38780753037895" stroke="#0072B2" stroke-width="1.5"/><rect x="190.4" y="201.36136613991405" width="67.2" height="47.8351083242581" fill="#0072B222" stroke="#0072B2" stroke-width="1.5"/><line x1="190.4" y1="221.5762027077225" x2="257.6" y2="221.5762027077225" stroke="#0072B2" stroke-width="2.5"/><text x="224" y="270" text-anchor="middle" font-weight="600">tide</text><text x="224" y="284" text-anchor="middle" fill="#888">n=28·4.1</text><line x1="336" y1="243.5923613619049" x2="336" y2="115.4583180292193" stroke="#E69F00" stroke-width="1.5"/><rect x="302.4" y="196.95813441862134" width="67.2" height="43.431876573141125" fill="#E69F0022" stroke="#E69F00" stroke-width="1.5"/><line x1="302.4" y1="237.18766068425094" x2="369.6" y2="237.18766068425094" stroke="#E69F00" stroke-width="2.5"/><text x="336" y="270" text-anchor="middle" font-weight="600">tanstack</text><text x="336" y="284" text-anchor="middle" fill="#888">n=30·2.1</text><line x1="448" y1="244.4730076882689" x2="448" y2="109.17370544969833" stroke="#009E73" stroke-width="1.5"/><rect x="414.4" y="177.34373852042322" width="67.2" height="60.44436283343802" fill="#009E7322" stroke="#009E73" stroke-width="1.5"/><line x1="414.4" y1="213.9706206341819" x2="481.6" y2="213.9706206341819" stroke="#009E73" stroke-width="2.5"/><text x="448" y="270" text-anchor="middle" font-weight="600">swr</text><text x="448" y="284" text-anchor="middle" fill="#888">n=30·5.0</text></svg>