<svg xmlns="http://www.w3.org/2000/svg" width="520" height="300" font-family="system-ui,sans-serif" font-size="11"><rect width="520" height="300" fill="white"/><text x="260" y="18" text-anchor="middle" font-size="13" font-weight="600">local-fast · gateways · update · update_to_dom_ms</text><line x1="56" y1="254" x2="504" y2="254" stroke="#eee"/><text x="50" y="257" text-anchor="end" fill="#666">0.0</text><line x1="56" y1="199.5" x2="504" y2="199.5" stroke="#eee"/><text x="50" y="202.5" text-anchor="end" fill="#666">6.6</text><line x1="56" y1="145" x2="504" y2="145" stroke="#eee"/><text x="50" y="148" text-anchor="end" fill="#666">13.1</text><line x1="56" y1="90.5" x2="504" y2="90.5" stroke="#eee"/><text x="50" y="93.5" text-anchor="end" fill="#666">19.7</text><line x1="56" y1="36" x2="504" y2="36" stroke="#eee"/><text x="50" y="39" text-anchor="end" fill="#666">26.2</text><line x1="112" y1="247.3536585630056" x2="112" y2="95.98323177836869" stroke="#999999" stroke-width="1.5"/><rect x="78.4" y="148.281631096122" width="67.2" height="98.86432924668472" fill="#99999922" stroke="#999999" stroke-width="1.5"/><line x1="78.4" y1="209.1371951145913" x2="145.6" y2="209.1371951145913" stroke="#999999" stroke-width="2.5"/><text x="112" y="270" text-anchor="middle" font-weight="600">vanilla</text><text x="112" y="284" text-anchor="middle" fill="#888">n=30·5.4</text><line x1="224" y1="249.01524389130478" x2="224" y2="81.85975612571747" stroke="#0072B2" stroke-width="1.5"/><rect x="190.4" y="159.28963418238624" width="67.2" height="88.06402438061937" fill="#0072B222" stroke="#0072B2" stroke-width="1.5"/><line x1="190.4" y1="235.72256095541712" x2="257.6" y2="235.72256095541712" stroke="#0072B2" stroke-width="2.5"/><text x="224" y="270" text-anchor="middle" font-weight="600">tide</text><text x="224" y="284" text-anchor="middle" fill="#888">n=29·2.2</text><line x1="336" y1="237.093368930185" x2="336" y2="86.05525915240403" stroke="#E69F00" stroke-width="1.5"/><rect x="302.4" y="193.14443599700544" width="67.2" height="41.747332309736834" fill="#E69F0022" stroke="#E69F00" stroke-width="1.5"/><line x1="302.4" y1="227.83003050672366" x2="369.6" y2="227.83003050672366" stroke="#E69F00" stroke-width="2.5"/><text x="336" y="270" text-anchor="middle" font-weight="600">tanstack</text><text x="336" y="284" text-anchor="middle" fill="#888">n=30·3.1</text><line x1="448" y1="244.03048784450843" x2="448" y2="88.21532016894622" stroke="#009E73" stroke-width="1.5"/><rect x="414.4" y="149.11242377574632" width="67.2" height="89.93330789816798" fill="#009E7322" stroke="#009E73" stroke-width="1.5"/><line x1="414.4" y1="208.3064024504417" x2="481.6" y2="208.3064024504417" stroke="#009E73" stroke-width="2.5"/><text x="448" y="270" text-anchor="middle" font-weight="600">swr</text><text x="448" y="284" text-anchor="middle" fill="#888">n=30·5.5</text></svg>