<svg xmlns="http://www.w3.org/2000/svg" width="520" height="300" font-family="system-ui,sans-serif" font-size="11"><rect width="520" height="300" fill="white"/><text x="260" y="18" text-anchor="middle" font-size="13" font-weight="600">local-fast · stack · revisit · ttdp_ms</text><line x1="56" y1="254" x2="504" y2="254" stroke="#eee"/><text x="50" y="257" text-anchor="end" fill="#666">10.6</text><line x1="56" y1="199.5" x2="504" y2="199.5" stroke="#eee"/><text x="50" y="202.5" text-anchor="end" fill="#666">26.3</text><line x1="56" y1="145" x2="504" y2="145" stroke="#eee"/><text x="50" y="148" text-anchor="end" fill="#666">42.0</text><line x1="56" y1="90.49999999999997" x2="504" y2="90.49999999999997" stroke="#eee"/><text x="50" y="93.49999999999997" text-anchor="end" fill="#666">57.7</text><line x1="56" y1="36" x2="504" y2="36" stroke="#eee"/><text x="50" y="39" text-anchor="end" fill="#666">73.4</text><line x1="112" y1="226.00461197775837" x2="112" y2="118.39138040129312" stroke="#999999" stroke-width="1.5"/><rect x="78.4" y="164.9347964410604" width="67.2" height="49.75031808627011" fill="#99999922" stroke="#999999" stroke-width="1.5"/><line x1="78.4" y1="190.24332062098966" x2="145.6" y2="190.24332062098966" stroke="#999999" stroke-width="2.5"/><text x="112" y="270" text-anchor="middle" font-weight="600">vanilla</text><text x="112" y="284" text-anchor="middle" fill="#888">n=30·28.9</text><line x1="224" y1="234.42923029360716" x2="224" y2="164.2587468306319" stroke="#0072B2" stroke-width="1.5"/><rect x="190.4" y="192.4101463146473" width="67.2" height="32.58905853748266" fill="#0072B222" stroke="#0072B2" stroke-width="1.5"/><line x1="190.4" y1="214.68511452087287" x2="257.6" y2="214.68511452087287" stroke="#0072B2" stroke-width="2.5"/><text x="224" y="270" text-anchor="middle" font-weight="600">tide</text><text x="224" y="284" text-anchor="middle" fill="#888">n=30·21.9</text><line x1="336" y1="208.37531807464637" x2="336" y2="125.09987277065814" stroke="#E69F00" stroke-width="1.5"/><rect x="302.4" y="167.01494910542186" width="67.2" height="31.548982205301968" fill="#E69F0022" stroke="#E69F00" stroke-width="1.5"/><line x1="302.4" y1="179.3225190846596" x2="369.6" y2="179.3225190846596" stroke="#E69F00" stroke-width="2.5"/><text x="336" y="270" text-anchor="middle" font-weight="600">tanstack</text><text x="336" y="284" text-anchor="middle" fill="#888">n=30·32.1</text><line x1="448" y1="216.01987914620284" x2="448" y2="72.62802161098426" stroke="#009E73" stroke-width="1.5"/><rect x="414.4" y="171.34860049919473" width="67.2" height="35.44926846550942" fill="#009E7322" stroke="#009E73" stroke-width="1.5"/><line x1="414.4" y1="193.36354962398954" x2="481.6" y2="193.36354962398954" stroke="#009E73" stroke-width="2.5"/><text x="448" y="270" text-anchor="middle" font-weight="600">swr</text><text x="448" y="284" text-anchor="middle" fill="#888">n=30·28.1</text></svg>