<svg xmlns="http://www.w3.org/2000/svg" width="520" height="300" font-family="system-ui,sans-serif" font-size="11"><rect width="520" height="300" fill="white"/><text x="260" y="18" text-anchor="middle" font-size="13" font-weight="600">local-fast · announcements · steady · js_heap_mb</text><line x1="56" y1="254" x2="504" y2="254" stroke="#eee"/><text x="50" y="257" text-anchor="end" fill="#666">2.7</text><line x1="56" y1="199.5" x2="504" y2="199.5" stroke="#eee"/><text x="50" y="202.5" text-anchor="end" fill="#666">3.0</text><line x1="56" y1="145" x2="504" y2="145" stroke="#eee"/><text x="50" y="148" text-anchor="end" fill="#666">3.2</text><line x1="56" y1="90.5" x2="504" y2="90.5" stroke="#eee"/><text x="50" y="93.5" text-anchor="end" fill="#666">3.4</text><line x1="56" y1="36" x2="504" y2="36" stroke="#eee"/><text x="50" y="39" text-anchor="end" fill="#666">3.6</text><line x1="112" y1="234.71248981546813" x2="112" y2="163.39133701169646" stroke="#999999" stroke-width="1.5"/><rect x="78.4" y="164.03473862826712" width="67.2" height="63.600937232602746" fill="#99999922" stroke="#999999" stroke-width="1.5"/><line x1="78.4" y1="166.5666345363865" x2="145.6" y2="166.5666345363865" stroke="#999999" stroke-width="2.5"/><text x="112" y="270" text-anchor="middle" font-weight="600">vanilla</text><text x="112" y="284" text-anchor="middle" fill="#888">n=30·3.1</text><line x1="224" y1="157.46379292417933" x2="224" y2="148.38554567783817" stroke="#0072B2" stroke-width="1.5"/><rect x="190.4" y="149.68407710244531" width="67.2" height="6.029451620491102" fill="#0072B222" stroke="#0072B2" stroke-width="1.5"/><line x1="190.4" y1="154.26283272311372" x2="257.6" y2="154.26283272311372" stroke="#0072B2" stroke-width="2.5"/><text x="224" y="270" text-anchor="middle" font-weight="600">tide</text><text x="224" y="284" text-anchor="middle" fill="#888">n=30·3.2</text><line x1="336" y1="69.84365891449087" x2="336" y2="57.886709654765724" stroke="#E69F00" stroke-width="1.5"/><rect x="302.4" y="62.576592792590134" width="67.2" height="4.600934675816546" fill="#E69F0022" stroke="#E69F00" stroke-width="1.5"/><line x1="302.4" y1="64.81725796609365" x2="369.6" y2="64.81725796609365" stroke="#E69F00" stroke-width="2.5"/><text x="336" y="270" text-anchor="middle" font-weight="600">tanstack</text><text x="336" y="284" text-anchor="middle" fill="#888">n=30·3.5</text><line x1="448" y1="137.18609824195377" x2="448" y2="126.05504590283533" stroke="#009E73" stroke-width="1.5"/><rect x="414.4" y="130.05874855541578" width="67.2" height="2.3315296271865122" fill="#009E7322" stroke="#009E73" stroke-width="1.5"/><line x1="414.4" y1="131.0847911276109" x2="481.6" y2="131.0847911276109" stroke="#009E73" stroke-width="2.5"/><text x="448" y="270" text-anchor="middle" font-weight="600">swr</text><text x="448" y="284" text-anchor="middle" fill="#888">n=30·3.2</text></svg>