<svg xmlns="http://www.w3.org/2000/svg" width="520" height="300" font-family="system-ui,sans-serif" font-size="11"><rect width="520" height="300" fill="white"/><text x="260" y="18" text-anchor="middle" font-size="13" font-weight="600">local-fast · dashboard · steady · js_heap_mb</text><line x1="56" y1="254" x2="504" y2="254" stroke="#eee"/><text x="50" y="257" text-anchor="end" fill="#666">3.3</text><line x1="56" y1="199.5" x2="504" y2="199.5" stroke="#eee"/><text x="50" y="202.5" text-anchor="end" fill="#666">3.7</text><line x1="56" y1="145" x2="504" y2="145" stroke="#eee"/><text x="50" y="148" text-anchor="end" fill="#666">4.2</text><line x1="56" y1="90.5" x2="504" y2="90.5" stroke="#eee"/><text x="50" y="93.5" text-anchor="end" fill="#666">4.6</text><line x1="56" y1="36" x2="504" y2="36" stroke="#eee"/><text x="50" y="39" text-anchor="end" fill="#666">5.1</text><line x1="112" y1="219.70990717369503" x2="112" y2="216.4526838678973" stroke="#999999" stroke-width="1.5"/><rect x="78.4" y="217.74725919127022" width="67.2" height="1.3546723352540084" fill="#99999922" stroke="#999999" stroke-width="1.5"/><line x1="78.4" y1="218.6888948379311" x2="145.6" y2="218.6888948379311" stroke="#999999" stroke-width="2.5"/><text x="112" y="270" text-anchor="middle" font-weight="600">vanilla</text><text x="112" y="284" text-anchor="middle" fill="#888">n=30·3.5</text><line x1="224" y1="144.45521306069725" x2="224" y2="132.86285842979282" stroke="#0072B2" stroke-width="1.5"/><rect x="190.4" y="132.9475963744837" width="67.2" height="11.269405563204316" fill="#0072B222" stroke="#0072B2" stroke-width="1.5"/><line x1="190.4" y1="133.2002585708701" x2="257.6" y2="133.2002585708701" stroke="#0072B2" stroke-width="2.5"/><text x="224" y="270" text-anchor="middle" font-weight="600">tide</text><text x="224" y="284" text-anchor="middle" fill="#888">n=30·4.3</text><line x1="336" y1="186.1762724576343" x2="336" y2="138.466007385311" stroke="#E69F00" stroke-width="1.5"/><rect x="302.4" y="141.02803911070316" width="67.2" height="43.67339014668639" fill="#E69F0022" stroke="#E69F00" stroke-width="1.5"/><line x1="302.4" y1="180.1713419764418" x2="369.6" y2="180.1713419764418" stroke="#E69F00" stroke-width="2.5"/><text x="336" y="270" text-anchor="middle" font-weight="600">tanstack</text><text x="336" y="284" text-anchor="middle" fill="#888">n=30·3.9</text><line x1="448" y1="235.1828729199599" x2="448" y2="111.96600419832441" stroke="#009E73" stroke-width="1.5"/><rect x="414.4" y="229.33440309860111" width="67.2" height="2.839033790559739" fill="#009E7322" stroke="#009E73" stroke-width="1.5"/><line x1="414.4" y1="231.19509458977106" x2="481.6" y2="231.19509458977106" stroke="#009E73" stroke-width="2.5"/><text x="448" y="270" text-anchor="middle" font-weight="600">swr</text><text x="448" y="284" text-anchor="middle" fill="#888">n=30·3.4</text></svg>