<svg xmlns="http://www.w3.org/2000/svg" width="520" height="300" font-family="system-ui,sans-serif" font-size="11"><rect width="520" height="300" fill="white"/><text x="260" y="18" text-anchor="middle" font-size="13" font-weight="600">local-fast · stack · update · update_to_dom_ms</text><line x1="56" y1="254" x2="504" y2="254" stroke="#eee"/><text x="50" y="257" text-anchor="end" fill="#666">0.0</text><line x1="56" y1="199.5" x2="504" y2="199.5" stroke="#eee"/><text x="50" y="202.5" text-anchor="end" fill="#666">7.2</text><line x1="56" y1="145" x2="504" y2="145" stroke="#eee"/><text x="50" y="148" text-anchor="end" fill="#666">14.5</text><line x1="56" y1="90.49999999999997" x2="504" y2="90.49999999999997" stroke="#eee"/><text x="50" y="93.49999999999997" text-anchor="end" fill="#666">21.7</text><line x1="56" y1="36" x2="504" y2="36" stroke="#eee"/><text x="50" y="39" text-anchor="end" fill="#666">29.0</text><line x1="112" y1="249.48965516098048" x2="112" y2="85.87689654420561" stroke="#999999" stroke-width="1.5"/><rect x="78.4" y="177.13620685339677" width="67.2" height="70.09827587407199" fill="#99999922" stroke="#999999" stroke-width="1.5"/><line x1="78.4" y1="219.42068964219405" x2="145.6" y2="219.42068964219405" stroke="#999999" stroke-width="2.5"/><text x="112" y="270" text-anchor="middle" font-weight="600">vanilla</text><text x="112" y="284" text-anchor="middle" fill="#888">n=30·4.6</text><line x1="224" y1="249.94068965048322" x2="224" y2="119.14068963256078" stroke="#0072B2" stroke-width="1.5"/><rect x="190.4" y="186.34482758273055" width="67.2" height="61.6413793359153" fill="#0072B222" stroke="#0072B2" stroke-width="1.5"/><line x1="190.4" y1="229.94482761857557" x2="257.6" y2="229.94482761857557" stroke="#0072B2" stroke-width="2.5"/><text x="224" y="270" text-anchor="middle" font-weight="600">tide</text><text x="224" y="284" text-anchor="middle" fill="#888">n=29·3.2</text><line x1="336" y1="245.73103447113218" x2="336" y2="100.38517241598139" stroke="#E69F00" stroke-width="1.5"/><rect x="302.4" y="179.01551722632482" width="67.2" height="64.27241377400281" fill="#E69F0022" stroke="#E69F00" stroke-width="1.5"/><line x1="302.4" y1="207.39310345148184" x2="369.6" y2="207.39310345148184" stroke="#E69F00" stroke-width="2.5"/><text x="336" y="270" text-anchor="middle" font-weight="600">tanstack</text><text x="336" y="284" text-anchor="middle" fill="#888">n=30·6.2</text><line x1="448" y1="249.15137931905693" x2="448" y2="136.31758619468883" stroke="#009E73" stroke-width="1.5"/><rect x="414.4" y="189.16379308611485" width="67.2" height="46.41896553922925" fill="#009E7322" stroke="#009E73" stroke-width="1.5"/><line x1="414.4" y1="205.13793103197207" x2="481.6" y2="205.13793103197207" stroke="#009E73" stroke-width="2.5"/><text x="448" y="270" text-anchor="middle" font-weight="600">swr</text><text x="448" y="284" text-anchor="middle" fill="#888">n=30·6.5</text></svg>