<svg xmlns="http://www.w3.org/2000/svg" width="520" height="300" font-family="system-ui,sans-serif" font-size="11"><rect width="520" height="300" fill="white"/><text x="260" y="18" text-anchor="middle" font-size="13" font-weight="600">local-fast · dashboard · revisit · ttdp_ms</text><line x1="56" y1="254" x2="504" y2="254" stroke="#eee"/><text x="50" y="257" text-anchor="end" fill="#666">3.1</text><line x1="56" y1="199.5" x2="504" y2="199.5" stroke="#eee"/><text x="50" y="202.5" text-anchor="end" fill="#666">45.4</text><line x1="56" y1="145" x2="504" y2="145" stroke="#eee"/><text x="50" y="148" text-anchor="end" fill="#666">87.6</text><line x1="56" y1="90.49999999999997" x2="504" y2="90.49999999999997" stroke="#eee"/><text x="50" y="93.49999999999997" text-anchor="end" fill="#666">129.8</text><line x1="56" y1="36" x2="504" y2="36" stroke="#eee"/><text x="50" y="39" text-anchor="end" fill="#666">172.1</text><line x1="112" y1="232.02710701182107" x2="112" y2="132.49106297427755" stroke="#999999" stroke-width="1.5"/><rect x="78.4" y="205.67382812676493" width="67.2" height="17.418323864005032" fill="#99999922" stroke="#999999" stroke-width="1.5"/><line x1="78.4" y1="216.02805397973745" x2="145.6" y2="216.02805397973745" stroke="#999999" stroke-width="2.5"/><text x="112" y="270" text-anchor="middle" font-weight="600">vanilla</text><text x="112" y="284" text-anchor="middle" fill="#888">n=30·32.6</text><line x1="224" y1="234.8914535974075" x2="224" y2="216.33771307526737" stroke="#0072B2" stroke-width="1.5"/><rect x="190.4" y="221.2212949793094" width="67.2" height="10.32196969959142" fill="#0072B222" stroke="#0072B2" stroke-width="1.5"/><line x1="190.4" y1="226.47904830006308" x2="257.6" y2="226.47904830006308" stroke="#0072B2" stroke-width="2.5"/><text x="224" y="270" text-anchor="middle" font-weight="600">tide</text><text x="224" y="284" text-anchor="middle" fill="#888">n=30·24.4</text><line x1="336" y1="228.37571022605746" x2="336" y2="156.6122159098174" stroke="#E69F00" stroke-width="1.5"/><rect x="302.4" y="202.09339488997537" width="67.2" height="19.837535511783557" fill="#E69F0022" stroke="#E69F00" stroke-width="1.5"/><line x1="302.4" y1="214.73780776758892" x2="369.6" y2="214.73780776758892" stroke="#E69F00" stroke-width="2.5"/><text x="336" y="270" text-anchor="middle" font-weight="600">tanstack</text><text x="336" y="284" text-anchor="middle" fill="#888">n=30·33.6</text><line x1="448" y1="225.40814394196107" x2="448" y2="205.55770596594118" stroke="#009E73" stroke-width="1.5"/><rect x="414.4" y="211.70572917192382" width="67.2" height="8.967211166261109" fill="#009E7322" stroke="#009E73" stroke-width="1.5"/><line x1="414.4" y1="218.60854640403448" x2="481.6" y2="218.60854640403448" stroke="#009E73" stroke-width="2.5"/><text x="448" y="270" text-anchor="middle" font-weight="600">swr</text><text x="448" y="284" text-anchor="middle" fill="#888">n=30·30.6</text></svg>