<svg xmlns="http://www.w3.org/2000/svg" width="520" height="300" font-family="system-ui,sans-serif" font-size="11"><rect width="520" height="300" fill="white"/><text x="260" y="18" text-anchor="middle" font-size="13" font-weight="600">local-fast · daemon · cold · fcp_ms</text><line x1="56" y1="254" x2="504" y2="254" stroke="#eee"/><text x="50" y="257" text-anchor="end" fill="#666">18.2</text><line x1="56" y1="199.5" x2="504" y2="199.5" stroke="#eee"/><text x="50" y="202.5" text-anchor="end" fill="#666">43.7</text><line x1="56" y1="145" x2="504" y2="145" stroke="#eee"/><text x="50" y="148" text-anchor="end" fill="#666">69.1</text><line x1="56" y1="90.5" x2="504" y2="90.5" stroke="#eee"/><text x="50" y="93.5" text-anchor="end" fill="#666">94.5</text><line x1="56" y1="36" x2="504" y2="36" stroke="#eee"/><text x="50" y="39" text-anchor="end" fill="#666">120.0</text><line x1="112" y1="229.10652514354132" x2="112" y2="190.63089622241347" stroke="#999999" stroke-width="1.5"/><rect x="78.4" y="207.55503144164706" width="67.2" height="11.56839622261299" fill="#99999922" stroke="#999999" stroke-width="1.5"/><line x1="78.4" y1="216.7669025039593" x2="145.6" y2="216.7669025039593" stroke="#999999" stroke-width="2.5"/><text x="112" y="270" text-anchor="middle" font-weight="600">vanilla</text><text x="112" y="284" text-anchor="middle" fill="#888">n=13·35.6</text><line x1="224" y1="230.17767295180383" x2="224" y2="152.41234277201247" stroke="#0072B2" stroke-width="1.5"/><rect x="190.4" y="189.66686319242342" width="67.2" height="32.24154875001551" fill="#0072B222" stroke="#0072B2" stroke-width="1.5"/><line x1="190.4" y1="204.12735848266067" x2="257.6" y2="204.12735848266067" stroke="#0072B2" stroke-width="2.5"/><text x="224" y="270" text-anchor="middle" font-weight="600">tide</text><text x="224" y="284" text-anchor="middle" fill="#888">n=15·41.5</text><line x1="336" y1="230.26336476739877" x2="336" y2="178.20558175446743" stroke="#E69F00" stroke-width="1.5"/><rect x="302.4" y="195.1297169832778" width="67.2" height="26.99292451410986" fill="#E69F0022" stroke="#E69F00" stroke-width="1.5"/><line x1="302.4" y1="216.5526729410299" x2="369.6" y2="216.5526729410299" stroke="#E69F00" stroke-width="2.5"/><text x="336" y="270" text-anchor="middle" font-weight="600">tanstack</text><text x="336" y="284" text-anchor="middle" fill="#888">n=17·35.7</text><line x1="448" y1="235.46914307635333" x2="448" y2="128.82566823505806" stroke="#009E73" stroke-width="1.5"/><rect x="414.4" y="184.90025549306057" width="67.2" height="25.06485848365827" fill="#009E7322" stroke="#009E73" stroke-width="1.5"/><line x1="414.4" y1="198.4502751448382" x2="481.6" y2="198.4502751448382" stroke="#009E73" stroke-width="2.5"/><text x="448" y="270" text-anchor="middle" font-weight="600">swr</text><text x="448" y="284" text-anchor="middle" fill="#888">n=18·44.2</text></svg>