<svg xmlns="http://www.w3.org/2000/svg" width="520" height="300" font-family="system-ui,sans-serif" font-size="11"><rect width="520" height="300" fill="white"/><text x="260" y="18" text-anchor="middle" font-size="13" font-weight="600">local-fast · summary · cold · fcp_ms</text><line x1="56" y1="254" x2="504" y2="254" stroke="#eee"/><text x="50" y="257" text-anchor="end" fill="#666">17.8</text><line x1="56" y1="199.5" x2="504" y2="199.5" stroke="#eee"/><text x="50" y="202.5" text-anchor="end" fill="#666">32.4</text><line x1="56" y1="144.99999999999997" x2="504" y2="144.99999999999997" stroke="#eee"/><text x="50" y="147.99999999999997" text-anchor="end" fill="#666">47.1</text><line x1="56" y1="90.5" x2="504" y2="90.5" stroke="#eee"/><text x="50" y="93.5" text-anchor="end" fill="#666">61.7</text><line x1="56" y1="36" x2="504" y2="36" stroke="#eee"/><text x="50" y="39" text-anchor="end" fill="#666">76.3</text><line x1="112" y1="208.0797399271972" x2="112" y2="58.19541409363102" stroke="#999999" stroke-width="1.5"/><rect x="78.4" y="105.27207390998655" width="67.2" height="89.52772077523085" fill="#99999922" stroke="#999999" stroke-width="1.5"/><line x1="78.4" y1="162.34599590315398" x2="145.6" y2="162.34599590315398" stroke="#999999" stroke-width="2.5"/><text x="112" y="270" text-anchor="middle" font-weight="600">vanilla</text><text x="112" y="284" text-anchor="middle" fill="#888">n=9·42.4</text><line x1="224" y1="199.35078712986413" x2="224" y2="151.30424366874286" stroke="#0072B2" stroke-width="1.5"/><rect x="190.4" y="164.58418892739854" width="67.2" height="15.294318966579226" fill="#0072B222" stroke="#0072B2" stroke-width="1.5"/><line x1="190.4" y1="178.01334701727976" x2="257.6" y2="178.01334701727976" stroke="#0072B2" stroke-width="2.5"/><text x="224" y="270" text-anchor="middle" font-weight="600">tide</text><text x="224" y="284" text-anchor="middle" fill="#888">n=13·38.2</text><line x1="336" y1="210.728268313743" x2="336" y2="151.75188227915044" stroke="#E69F00" stroke-width="1.5"/><rect x="302.4" y="173.5369609965837" width="67.2" height="31.521218343714423" fill="#E69F0022" stroke="#E69F00" stroke-width="1.5"/><line x1="302.4" y1="200.76830937947878" x2="369.6" y2="200.76830937947878" stroke="#E69F00" stroke-width="2.5"/><text x="336" y="270" text-anchor="middle" font-weight="600">tanstack</text><text x="336" y="284" text-anchor="middle" fill="#888">n=15·32.1</text><line x1="448" y1="218.71115674511069" x2="448" y2="141.00855580029724" stroke="#009E73" stroke-width="1.5"/><rect x="414.4" y="184.07511977622084" width="67.2" height="24.060574961991136" fill="#009E7322" stroke="#009E73" stroke-width="1.5"/><line x1="414.4" y1="198.7166324568006" x2="481.6" y2="198.7166324568006" stroke="#009E73" stroke-width="2.5"/><text x="448" y="270" text-anchor="middle" font-weight="600">swr</text><text x="448" y="284" text-anchor="middle" fill="#888">n=18·32.6</text></svg>