<svg xmlns="http://www.w3.org/2000/svg" width="520" height="300" font-family="system-ui,sans-serif" font-size="11"><rect width="520" height="300" fill="white"/><text x="260" y="18" text-anchor="middle" font-size="13" font-weight="600">local-fast · tooling · cold · fcp_ms</text><line x1="56" y1="254" x2="504" y2="254" stroke="#eee"/><text x="50" y="257" text-anchor="end" fill="#666">19.7</text><line x1="56" y1="199.5" x2="504" y2="199.5" stroke="#eee"/><text x="50" y="202.5" text-anchor="end" fill="#666">35.9</text><line x1="56" y1="145" x2="504" y2="145" stroke="#eee"/><text x="50" y="148" text-anchor="end" fill="#666">52.0</text><line x1="56" y1="90.49999999999997" x2="504" y2="90.49999999999997" stroke="#eee"/><text x="50" y="93.49999999999997" text-anchor="end" fill="#666">68.1</text><line x1="56" y1="36" x2="504" y2="36" stroke="#eee"/><text x="50" y="39" text-anchor="end" fill="#666">84.3</text><line x1="112" y1="232.59169765749746" x2="112" y2="175.12019826785453" stroke="#999999" stroke-width="1.5"/><rect x="78.4" y="196.6635687660327" width="67.2" height="22.28624535942609" fill="#99999922" stroke="#999999" stroke-width="1.5"/><line x1="78.4" y1="200.715613385986" x2="145.6" y2="200.715613385986" stroke="#999999" stroke-width="2.5"/><text x="112" y="270" text-anchor="middle" font-weight="600">vanilla</text><text x="112" y="284" text-anchor="middle" fill="#888">n=13·35.5</text><line x1="224" y1="224.08240397069068" x2="224" y2="80.87639404899568" stroke="#0072B2" stroke-width="1.5"/><rect x="190.4" y="169.22785007210544" width="67.2" height="39.42301735290286" fill="#0072B222" stroke="#0072B2" stroke-width="1.5"/><line x1="190.4" y1="190.07899629005672" x2="257.6" y2="190.07899629005672" stroke="#0072B2" stroke-width="2.5"/><text x="224" y="270" text-anchor="middle" font-weight="600">tide</text><text x="224" y="284" text-anchor="middle" fill="#888">n=12·38.6</text><line x1="336" y1="227.0201363088355" x2="336" y2="130.54770755654994" stroke="#E69F00" stroke-width="1.5"/><rect x="302.4" y="199.1960966660827" width="67.2" height="23.55250929372707" fill="#E69F0022" stroke="#E69F00" stroke-width="1.5"/><line x1="302.4" y1="214.0535935702702" x2="369.6" y2="214.0535935702702" stroke="#E69F00" stroke-width="2.5"/><text x="336" y="270" text-anchor="middle" font-weight="600">tanstack</text><text x="336" y="284" text-anchor="middle" fill="#888">n=14·31.5</text><line x1="448" y1="225.77075589147813" x2="448" y2="139.25960347435438" stroke="#009E73" stroke-width="1.5"/><rect x="414.4" y="196.325898402002" width="67.2" height="15.870508040306987" fill="#009E7322" stroke="#009E73" stroke-width="1.5"/><line x1="414.4" y1="198.0142503227894" x2="481.6" y2="198.0142503227894" stroke="#009E73" stroke-width="2.5"/><text x="448" y="270" text-anchor="middle" font-weight="600">swr</text><text x="448" y="284" text-anchor="middle" fill="#888">n=13·36.3</text></svg>