<svg xmlns="http://www.w3.org/2000/svg" width="520" height="300" font-family="system-ui,sans-serif" font-size="11"><rect width="520" height="300" fill="white"/><text x="260" y="18" text-anchor="middle" font-size="13" font-weight="600">local-fast · tooling · cold · ttdp_ms</text><line x1="56" y1="254" x2="504" y2="254" stroke="#eee"/><text x="50" y="257" text-anchor="end" fill="#666">8.0</text><line x1="56" y1="199.5" x2="504" y2="199.5" stroke="#eee"/><text x="50" y="202.5" text-anchor="end" fill="#666">44.1</text><line x1="56" y1="145" x2="504" y2="145" stroke="#eee"/><text x="50" y="148" text-anchor="end" fill="#666">80.1</text><line x1="56" y1="90.50000000000003" x2="504" y2="90.50000000000003" stroke="#eee"/><text x="50" y="93.50000000000003" text-anchor="end" fill="#666">116.2</text><line x1="56" y1="36" x2="504" y2="36" stroke="#eee"/><text x="50" y="39" text-anchor="end" fill="#666">152.3</text><line x1="112" y1="229.5739124377015" x2="112" y2="170.60397616580565" stroke="#999999" stroke-width="1.5"/><rect x="78.4" y="202.91285674789347" width="67.2" height="14.610349131481911" fill="#99999922" stroke="#999999" stroke-width="1.5"/><line x1="78.4" y1="213.0306179025057" x2="145.6" y2="213.0306179025057" stroke="#999999" stroke-width="2.5"/><text x="112" y="270" text-anchor="middle" font-weight="600">vanilla</text><text x="112" y="284" text-anchor="middle" fill="#888">n=30·35.1</text><line x1="224" y1="234.24016348284925" x2="224" y2="132.6095178721298" stroke="#0072B2" stroke-width="1.5"/><rect x="190.4" y="207.36769187845215" width="67.2" height="22.80271543645327" fill="#0072B222" stroke="#0072B2" stroke-width="1.5"/><line x1="190.4" y1="219.14657799790734" x2="257.6" y2="219.14657799790734" stroke="#0072B2" stroke-width="2.5"/><text x="224" y="270" text-anchor="middle" font-weight="600">tide</text><text x="224" y="284" text-anchor="middle" fill="#888">n=30·31.1</text><line x1="336" y1="215.75637295948815" x2="336" y2="120.56636186618913" stroke="#E69F00" stroke-width="1.5"/><rect x="302.4" y="179.43059019035397" width="67.2" height="32.429689664967896" fill="#E69F0022" stroke="#E69F00" stroke-width="1.5"/><line x1="302.4" y1="207.82072596667714" x2="369.6" y2="207.82072596667714" stroke="#E69F00" stroke-width="2.5"/><text x="336" y="270" text-anchor="middle" font-weight="600">tanstack</text><text x="336" y="284" text-anchor="middle" fill="#888">n=30·38.5</text><line x1="448" y1="227.48995567068337" x2="448" y2="140.0392768008814" stroke="#009E73" stroke-width="1.5"/><rect x="414.4" y="205.0647686332084" width="67.2" height="10.042255470428586" fill="#009E7322" stroke="#009E73" stroke-width="1.5"/><line x1="414.4" y1="208.87780548899187" x2="481.6" y2="208.87780548899187" stroke="#009E73" stroke-width="2.5"/><text x="448" y="270" text-anchor="middle" font-weight="600">swr</text><text x="448" y="284" text-anchor="middle" fill="#888">n=30·37.8</text></svg>