<svg xmlns="http://www.w3.org/2000/svg" width="520" height="300" font-family="system-ui,sans-serif" font-size="11"><rect width="520" height="300" fill="white"/><text x="260" y="18" text-anchor="middle" font-size="13" font-weight="600">local-fast · gateways · steady · js_heap_mb</text><line x1="56" y1="254" x2="504" y2="254" stroke="#eee"/><text x="50" y="257" text-anchor="end" fill="#666">3.1</text><line x1="56" y1="199.5" x2="504" y2="199.5" stroke="#eee"/><text x="50" y="202.5" text-anchor="end" fill="#666">3.4</text><line x1="56" y1="145" x2="504" y2="145" stroke="#eee"/><text x="50" y="148" text-anchor="end" fill="#666">3.6</text><line x1="56" y1="90.5" x2="504" y2="90.5" stroke="#eee"/><text x="50" y="93.5" text-anchor="end" fill="#666">3.8</text><line x1="56" y1="36" x2="504" y2="36" stroke="#eee"/><text x="50" y="39" text-anchor="end" fill="#666">4.0</text><line x1="112" y1="235.75141023439966" x2="112" y2="226.21533973009807" stroke="#999999" stroke-width="1.5"/><rect x="78.4" y="229.7616442101649" width="67.2" height="5.0098770456187935" fill="#99999922" stroke="#999999" stroke-width="1.5"/><line x1="78.4" y1="232.00390206888073" x2="145.6" y2="232.00390206888073" stroke="#999999" stroke-width="2.5"/><text x="112" y="270" text-anchor="middle" font-weight="600">vanilla</text><text x="112" y="284" text-anchor="middle" fill="#888">n=30·3.2</text><line x1="224" y1="212.19856549689385" x2="224" y2="200.01367123003126" stroke="#0072B2" stroke-width="1.5"/><rect x="190.4" y="203.50189486669169" width="67.2" height="5.418857208865603" fill="#0072B222" stroke="#0072B2" stroke-width="1.5"/><line x1="190.4" y1="206.70269456826077" x2="257.6" y2="206.70269456826077" stroke="#0072B2" stroke-width="2.5"/><text x="224" y="270" text-anchor="middle" font-weight="600">tide</text><text x="224" y="284" text-anchor="middle" fill="#888">n=30·3.3</text><line x1="336" y1="63.241463455990946" x2="336" y2="55.76123301985372" stroke="#E69F00" stroke-width="1.5"/><rect x="302.4" y="57.34725127755134" width="67.2" height="4.628909222320431" fill="#E69F0022" stroke="#E69F00" stroke-width="1.5"/><line x1="302.4" y1="59.55346851744698" x2="369.6" y2="59.55346851744698" stroke="#E69F00" stroke-width="2.5"/><text x="336" y="270" text-anchor="middle" font-weight="600">tanstack</text><text x="336" y="284" text-anchor="middle" fill="#888">n=30·3.9</text><line x1="448" y1="155.65116956089534" x2="448" y2="131.13191642239" stroke="#009E73" stroke-width="1.5"/><rect x="414.4" y="133.8607919440612" width="67.2" height="6.124363873751804" fill="#009E7322" stroke="#009E73" stroke-width="1.5"/><line x1="414.4" y1="136.50146036146594" x2="481.6" y2="136.50146036146594" stroke="#009E73" stroke-width="2.5"/><text x="448" y="270" text-anchor="middle" font-weight="600">swr</text><text x="448" y="284" text-anchor="middle" fill="#888">n=30·3.6</text></svg>