<svg xmlns="http://www.w3.org/2000/svg" width="520" height="300" font-family="system-ui,sans-serif" font-size="11"><rect width="520" height="300" fill="white"/><text x="260" y="18" text-anchor="middle" font-size="13" font-weight="600">local-fast · dashboard · update · update_to_dom_ms</text><line x1="56" y1="254" x2="504" y2="254" stroke="#eee"/><text x="50" y="257" text-anchor="end" fill="#666">0.0</text><line x1="56" y1="199.5" x2="504" y2="199.5" stroke="#eee"/><text x="50" y="202.5" text-anchor="end" fill="#666">6.0</text><line x1="56" y1="145" x2="504" y2="145" stroke="#eee"/><text x="50" y="148" text-anchor="end" fill="#666">12.0</text><line x1="56" y1="90.5" x2="504" y2="90.5" stroke="#eee"/><text x="50" y="93.5" text-anchor="end" fill="#666">18.0</text><line x1="56" y1="36" x2="504" y2="36" stroke="#eee"/><text x="50" y="39" text-anchor="end" fill="#666">24.0</text><line x1="112" y1="240.03963289904723" x2="112" y2="91.0229453290826" stroke="#999999" stroke-width="1.5"/><rect x="78.4" y="182.15185646114108" width="67.2" height="52.521902402545265" fill="#99999922" stroke="#999999" stroke-width="1.5"/><line x1="78.4" y1="222.16854397689713" x2="145.6" y2="222.16854397689713" stroke="#999999" stroke-width="2.5"/><text x="112" y="270" text-anchor="middle" font-weight="600">vanilla</text><text x="112" y="284" text-anchor="middle" fill="#888">n=30·3.5</text><line x1="224" y1="240.8581560347604" x2="224" y2="117.98873591500653" stroke="#0072B2" stroke-width="1.5"/><rect x="190.4" y="156.91405927691602" width="67.2" height="81.39758025770075" fill="#0072B222" stroke="#0072B2" stroke-width="1.5"/><line x1="190.4" y1="230.35377553731115" x2="257.6" y2="230.35377553731115" stroke="#0072B2" stroke-width="2.5"/><text x="224" y="270" text-anchor="middle" font-weight="600">tide</text><text x="224" y="284" text-anchor="middle" fill="#888">n=30·2.6</text><line x1="336" y1="221.75928245816715" x2="336" y2="88.34000830801409" stroke="#E69F00" stroke-width="1.5"/><rect x="302.4" y="147.81935756570962" width="67.2" height="64.3450146000093" fill="#E69F0022" stroke="#E69F00" stroke-width="1.5"/><line x1="302.4" y1="197.1581143049599" x2="369.6" y2="197.1581143049599" stroke="#E69F00" stroke-width="2.5"/><text x="336" y="270" text-anchor="middle" font-weight="600">tanstack</text><text x="336" y="284" text-anchor="middle" fill="#888">n=30·6.3</text><line x1="448" y1="197.29453486654123" x2="448" y2="136.31455983462794" stroke="#009E73" stroke-width="1.5"/><rect x="414.4" y="178.51397580715087" width="67.2" height="12.732582399077046" fill="#009E7322" stroke="#009E73" stroke-width="1.5"/><line x1="414.4" y1="187.6086775352975" x2="481.6" y2="187.6086775352975" stroke="#009E73" stroke-width="2.5"/><text x="448" y="270" text-anchor="middle" font-weight="600">swr</text><text x="448" y="284" text-anchor="middle" fill="#888">n=30·7.3</text></svg>