<svg xmlns="http://www.w3.org/2000/svg" width="520" height="300" font-family="system-ui,sans-serif" font-size="11"><rect width="520" height="300" fill="white"/><text x="260" y="18" text-anchor="middle" font-size="13" font-weight="600">local-fast · gateways · revisit · ttdp_ms</text><line x1="56" y1="254" x2="504" y2="254" stroke="#eee"/><text x="50" y="257" text-anchor="end" fill="#666">6.9</text><line x1="56" y1="199.5" x2="504" y2="199.5" stroke="#eee"/><text x="50" y="202.5" text-anchor="end" fill="#666">37.1</text><line x1="56" y1="145" x2="504" y2="145" stroke="#eee"/><text x="50" y="148" text-anchor="end" fill="#666">67.3</text><line x1="56" y1="90.5" x2="504" y2="90.5" stroke="#eee"/><text x="50" y="93.5" text-anchor="end" fill="#666">97.5</text><line x1="56" y1="36" x2="504" y2="36" stroke="#eee"/><text x="50" y="39" text-anchor="end" fill="#666">127.7</text><line x1="112" y1="228.61000662701224" x2="112" y2="114.44532804316013" stroke="#999999" stroke-width="1.5"/><rect x="78.4" y="201.52253147494446" width="67.2" height="18.193754146928114" fill="#99999922" stroke="#999999" stroke-width="1.5"/><line x1="78.4" y1="212.17693836744084" x2="145.6" y2="212.17693836744084" stroke="#999999" stroke-width="2.5"/><text x="112" y="270" text-anchor="middle" font-weight="600">vanilla</text><text x="112" y="284" text-anchor="middle" fill="#888">n=30·30.1</text><line x1="224" y1="234.37963882413354" x2="224" y2="210.57877733070728" stroke="#0072B2" stroke-width="1.5"/><rect x="190.4" y="216.0143306801739" width="67.2" height="13.634029156162882" fill="#0072B222" stroke="#0072B2" stroke-width="1.5"/><line x1="190.4" y1="223.73426109486368" x2="257.6" y2="223.73426109486368" stroke="#0072B2" stroke-width="2.5"/><text x="224" y="270" text-anchor="middle" font-weight="600">tide</text><text x="224" y="284" text-anchor="middle" fill="#888">n=30·23.7</text><line x1="336" y1="227.09310802164478" x2="336" y2="137.5057985354646" stroke="#E69F00" stroke-width="1.5"/><rect x="302.4" y="194.47978794906317" width="67.2" height="26.13941351109952" fill="#E69F0022" stroke="#E69F00" stroke-width="1.5"/><line x1="302.4" y1="209.10702452532706" x2="369.6" y2="209.10702452532706" stroke="#E69F00" stroke-width="2.5"/><text x="336" y="270" text-anchor="middle" font-weight="600">tanstack</text><text x="336" y="284" text-anchor="middle" fill="#888">n=30·31.8</text><line x1="448" y1="230.76797547837293" x2="448" y2="107.65540092549466" stroke="#009E73" stroke-width="1.5"/><rect x="414.4" y="199.03951292301022" width="67.2" height="21.76027169741053" fill="#009E7322" stroke="#009E73" stroke-width="1.5"/><line x1="414.4" y1="213.26043736935264" x2="481.6" y2="213.26043736935264" stroke="#009E73" stroke-width="2.5"/><text x="448" y="270" text-anchor="middle" font-weight="600">swr</text><text x="448" y="284" text-anchor="middle" fill="#888">n=30·29.5</text></svg>