<svg xmlns="http://www.w3.org/2000/svg" width="520" height="300" font-family="system-ui,sans-serif" font-size="11"><rect width="520" height="300" fill="white"/><text x="260" y="18" text-anchor="middle" font-size="13" font-weight="600">local-fast · tooling · revisit · ttdp_ms</text><line x1="56" y1="254" x2="504" y2="254" stroke="#eee"/><text x="50" y="257" text-anchor="end" fill="#666">0.0</text><line x1="56" y1="199.5" x2="504" y2="199.5" stroke="#eee"/><text x="50" y="202.5" text-anchor="end" fill="#666">60.2</text><line x1="56" y1="145" x2="504" y2="145" stroke="#eee"/><text x="50" y="148" text-anchor="end" fill="#666">120.4</text><line x1="56" y1="90.5" x2="504" y2="90.5" stroke="#eee"/><text x="50" y="93.5" text-anchor="end" fill="#666">180.6</text><line x1="56" y1="36" x2="504" y2="36" stroke="#eee"/><text x="50" y="39" text-anchor="end" fill="#666">240.8</text><line x1="112" y1="236.65322815347056" x2="112" y2="158.93444052105687" stroke="#999999" stroke-width="1.5"/><rect x="78.4" y="227.6834129132756" width="67.2" height="5.498650608368109" fill="#99999922" stroke="#999999" stroke-width="1.5"/><line x1="78.4" y1="231.28129541410533" x2="145.6" y2="231.28129541410533" stroke="#999999" stroke-width="2.5"/><text x="112" y="270" text-anchor="middle" font-weight="600">vanilla</text><text x="112" y="284" text-anchor="middle" fill="#888">n=30·25.1</text><line x1="224" y1="237.89777869955927" x2="224" y2="222.41556985513884" stroke="#0072B2" stroke-width="1.5"/><rect x="190.4" y="229.99148847628288" width="67.2" height="5.543906999427492" fill="#0072B222" stroke="#0072B2" stroke-width="1.5"/><line x1="190.4" y1="233.40834543985005" x2="257.6" y2="233.40834543985005" stroke="#0072B2" stroke-width="2.5"/><text x="224" y="270" text-anchor="middle" font-weight="600">tide</text><text x="224" y="284" text-anchor="middle" fill="#888">n=30·22.8</text><line x1="336" y1="231.9194104184569" x2="336" y2="171.73747145613942" stroke="#E69F00" stroke-width="1.5"/><rect x="302.4" y="220.23873780799562" width="67.2" height="8.598712888469521" fill="#E69F0022" stroke="#E69F00" stroke-width="1.5"/><line x1="302.4" y1="225.48847830937143" x2="369.6" y2="225.48847830937143" stroke="#E69F00" stroke-width="2.5"/><text x="336" y="270" text-anchor="middle" font-weight="600">tanstack</text><text x="336" y="284" text-anchor="middle" fill="#888">n=30·31.5</text><line x1="448" y1="234.17770396512353" x2="448" y2="180.66655594572958" stroke="#009E73" stroke-width="1.5"/><rect x="414.4" y="217.18393190546615" width="67.2" height="12.671787422927594" fill="#009E7322" stroke="#009E73" stroke-width="1.5"/><line x1="414.4" y1="226.16732406061863" x2="481.6" y2="226.16732406061863" stroke="#009E73" stroke-width="2.5"/><text x="448" y="270" text-anchor="middle" font-weight="600">swr</text><text x="448" y="284" text-anchor="middle" fill="#888">n=30·30.8</text></svg>