<svg xmlns="http://www.w3.org/2000/svg" width="520" height="300" font-family="system-ui,sans-serif" font-size="11"><rect width="520" height="300" fill="white"/><text x="260" y="18" text-anchor="middle" font-size="13" font-weight="600">local-fast · dashboard · cold · ttdp_ms</text><line x1="56" y1="254" x2="504" y2="254" stroke="#eee"/><text x="50" y="257" text-anchor="end" fill="#666">6.6</text><line x1="56" y1="199.5" x2="504" y2="199.5" stroke="#eee"/><text x="50" y="202.5" text-anchor="end" fill="#666">53.7</text><line x1="56" y1="145" x2="504" y2="145" stroke="#eee"/><text x="50" y="148" text-anchor="end" fill="#666">100.7</text><line x1="56" y1="90.5" x2="504" y2="90.5" stroke="#eee"/><text x="50" y="93.5" text-anchor="end" fill="#666">147.7</text><line x1="56" y1="36" x2="504" y2="36" stroke="#eee"/><text x="50" y="39" text-anchor="end" fill="#666">194.8</text><line x1="112" y1="232.4502550979075" x2="112" y2="192.2877869869803" stroke="#999999" stroke-width="1.5"/><rect x="78.4" y="213.50154124170166" width="67.2" height="14.569249569235268" fill="#99999922" stroke="#999999" stroke-width="1.5"/><line x1="78.4" y1="222.85714285405993" x2="145.6" y2="222.85714285405993" stroke="#999999" stroke-width="2.5"/><text x="112" y="270" text-anchor="middle" font-weight="600">vanilla</text><text x="112" y="284" text-anchor="middle" fill="#888">n=30·33.5</text><line x1="224" y1="232.3575680234255" x2="224" y2="194.39062499738338" stroke="#0072B2" stroke-width="1.5"/><rect x="190.4" y="213.87808248016628" width="67.2" height="10.630048892959934" fill="#0072B222" stroke="#0072B2" stroke-width="1.5"/><line x1="190.4" y1="219.8448129204466" x2="257.6" y2="219.8448129204466" stroke="#0072B2" stroke-width="2.5"/><text x="224" y="270" text-anchor="middle" font-weight="600">tide</text><text x="224" y="284" text-anchor="middle" fill="#888">n=30·36.1</text><line x1="336" y1="222.28943451616774" x2="336" y2="123.05054209427547" stroke="#E69F00" stroke-width="1.5"/><rect x="302.4" y="202.46598639032982" width="67.2" height="17.205038264384" fill="#E69F0022" stroke="#E69F00" stroke-width="1.5"/><line x1="302.4" y1="215.5001062879174" x2="369.6" y2="215.5001062879174" stroke="#E69F00" stroke-width="2.5"/><text x="336" y="270" text-anchor="middle" font-weight="600">tanstack</text><text x="336" y="284" text-anchor="middle" fill="#888">n=30·39.9</text><line x1="448" y1="226.59938349943485" x2="448" y2="135.9398384374453" stroke="#009E73" stroke-width="1.5"/><rect x="414.4" y="212.83535289224372" width="67.2" height="7.878401354708728" fill="#009E7322" stroke="#009E73" stroke-width="1.5"/><line x1="414.4" y1="215.61596513317795" x2="481.6" y2="215.61596513317795" stroke="#009E73" stroke-width="2.5"/><text x="448" y="270" text-anchor="middle" font-weight="600">swr</text><text x="448" y="284" text-anchor="middle" fill="#888">n=30·39.8</text></svg>