<svg xmlns="http://www.w3.org/2000/svg" width="520" height="300" font-family="system-ui,sans-serif" font-size="11"><rect width="520" height="300" fill="white"/><text x="260" y="18" text-anchor="middle" font-size="13" font-weight="600">local-fast · tooling · steady · js_heap_mb</text><line x1="56" y1="254" x2="504" y2="254" stroke="#eee"/><text x="50" y="257" text-anchor="end" fill="#666">2.8</text><line x1="56" y1="199.5" x2="504" y2="199.5" stroke="#eee"/><text x="50" y="202.5" text-anchor="end" fill="#666">3.1</text><line x1="56" y1="145" x2="504" y2="145" stroke="#eee"/><text x="50" y="148" text-anchor="end" fill="#666">3.3</text><line x1="56" y1="90.5" x2="504" y2="90.5" stroke="#eee"/><text x="50" y="93.5" text-anchor="end" fill="#666">3.6</text><line x1="56" y1="36" x2="504" y2="36" stroke="#eee"/><text x="50" y="39" text-anchor="end" fill="#666">3.9</text><line x1="112" y1="207.64241795536708" x2="112" y2="173.5860605022518" stroke="#999999" stroke-width="1.5"/><rect x="78.4" y="180.72778578009365" width="67.2" height="3.747484522549769" fill="#99999922" stroke="#999999" stroke-width="1.5"/><line x1="78.4" y1="181.58058642687507" x2="145.6" y2="181.58058642687507" stroke="#999999" stroke-width="2.5"/><text x="112" y="270" text-anchor="middle" font-weight="600">vanilla</text><text x="112" y="284" text-anchor="middle" fill="#888">n=30·3.2</text><line x1="224" y1="171.37363561079133" x2="224" y2="162.4505394193402" stroke="#0072B2" stroke-width="1.5"/><rect x="190.4" y="164.52554300259317" width="67.2" height="4.567090947534069" fill="#0072B222" stroke="#0072B2" stroke-width="1.5"/><line x1="190.4" y1="166.95620028130654" x2="257.6" y2="166.95620028130654" stroke="#0072B2" stroke-width="2.5"/><text x="224" y="270" text-anchor="middle" font-weight="600">tide</text><text x="224" y="284" text-anchor="middle" fill="#888">n=30·3.2</text><line x1="336" y1="92.05302790803421" x2="336" y2="81.07714379331453" stroke="#E69F00" stroke-width="1.5"/><rect x="302.4" y="85.28114812506922" width="67.2" height="3.501182473471232" fill="#E69F0022" stroke="#E69F00" stroke-width="1.5"/><line x1="302.4" y1="87.19394784342386" x2="369.6" y2="87.19394784342386" stroke="#E69F00" stroke-width="2.5"/><text x="336" y="270" text-anchor="middle" font-weight="600">tanstack</text><text x="336" y="284" text-anchor="middle" fill="#888">n=30·3.6</text><line x1="448" y1="144.22355068007266" x2="448" y2="131.56970096187047" stroke="#009E73" stroke-width="1.5"/><rect x="414.4" y="138.6501161888827" width="67.2" height="4.535235574738493" fill="#009E7322" stroke="#009E73" stroke-width="1.5"/><line x1="414.4" y1="140.3708141591181" x2="481.6" y2="140.3708141591181" stroke="#009E73" stroke-width="2.5"/><text x="448" y="270" text-anchor="middle" font-weight="600">swr</text><text x="448" y="284" text-anchor="middle" fill="#888">n=30·3.4</text></svg>