<svg xmlns="http://www.w3.org/2000/svg" width="520" height="300" font-family="system-ui,sans-serif" font-size="11"><rect width="520" height="300" fill="white"/><text x="260" y="18" text-anchor="middle" font-size="13" font-weight="600">local-fast · daemon · steady · js_heap_mb</text><line x1="56" y1="254" x2="504" y2="254" stroke="#eee"/><text x="50" y="257" text-anchor="end" fill="#666">3.2</text><line x1="56" y1="199.49999999999997" x2="504" y2="199.49999999999997" stroke="#eee"/><text x="50" y="202.49999999999997" text-anchor="end" fill="#666">3.5</text><line x1="56" y1="145.00000000000006" x2="504" y2="145.00000000000006" stroke="#eee"/><text x="50" y="148.00000000000006" text-anchor="end" fill="#666">3.7</text><line x1="56" y1="90.50000000000003" x2="504" y2="90.50000000000003" stroke="#eee"/><text x="50" y="93.50000000000003" text-anchor="end" fill="#666">3.9</text><line x1="56" y1="36" x2="504" y2="36" stroke="#eee"/><text x="50" y="39" text-anchor="end" fill="#666">4.1</text><line x1="112" y1="235.40888748310527" x2="112" y2="228.48845670957613" stroke="#999999" stroke-width="1.5"/><rect x="78.4" y="229.46298294066142" width="67.2" height="3.7351715166201984" fill="#99999922" stroke="#999999" stroke-width="1.5"/><line x1="78.4" y1="231.59391846543076" x2="145.6" y2="231.59391846543076" stroke="#999999" stroke-width="2.5"/><text x="112" y="270" text-anchor="middle" font-weight="600">vanilla</text><text x="112" y="284" text-anchor="middle" fill="#888">n=30·3.3</text><line x1="224" y1="215.73388592969232" x2="224" y2="200.0334243787561" stroke="#0072B2" stroke-width="1.5"/><rect x="190.4" y="208.23630727080993" width="67.2" height="5.537850503944782" fill="#0072B222" stroke="#0072B2" stroke-width="1.5"/><line x1="190.4" y1="211.57993664719285" x2="257.6" y2="211.57993664719285" stroke="#0072B2" stroke-width="2.5"/><text x="224" y="270" text-anchor="middle" font-weight="600">tide</text><text x="224" y="284" text-anchor="middle" fill="#888">n=30·3.4</text><line x1="336" y1="87.27620497471139" x2="336" y2="56.31928981926209" stroke="#E69F00" stroke-width="1.5"/><rect x="302.4" y="57.36048809336528" width="67.2" height="5.7268667065926735" fill="#E69F0022" stroke="#E69F00" stroke-width="1.5"/><line x1="302.4" y1="60.71246348377869" x2="369.6" y2="60.71246348377869" stroke="#E69F00" stroke-width="2.5"/><text x="336" y="270" text-anchor="middle" font-weight="600">tanstack</text><text x="336" y="284" text-anchor="middle" fill="#888">n=30·4.0</text><line x1="448" y1="178.99820266816857" x2="448" y2="145.68198342849917" stroke="#009E73" stroke-width="1.5"/><rect x="414.4" y="151.1641017725654" width="67.2" height="23.934506898255194" fill="#009E7322" stroke="#009E73" stroke-width="1.5"/><line x1="414.4" y1="160.7139232512647" x2="481.6" y2="160.7139232512647" stroke="#009E73" stroke-width="2.5"/><text x="448" y="270" text-anchor="middle" font-weight="600">swr</text><text x="448" y="284" text-anchor="middle" fill="#888">n=30·3.6</text></svg>