<svg xmlns="http://www.w3.org/2000/svg" width="520" height="300" font-family="system-ui,sans-serif" font-size="11"><rect width="520" height="300" fill="white"/><text x="260" y="18" text-anchor="middle" font-size="13" font-weight="600">local-fast · daemon · revisit · ttdp_ms</text><line x1="56" y1="254" x2="504" y2="254" stroke="#eee"/><text x="50" y="257" text-anchor="end" fill="#666">0.0</text><line x1="56" y1="199.5" x2="504" y2="199.5" stroke="#eee"/><text x="50" y="202.5" text-anchor="end" fill="#666">51.5</text><line x1="56" y1="145" x2="504" y2="145" stroke="#eee"/><text x="50" y="148" text-anchor="end" fill="#666">103.0</text><line x1="56" y1="90.5" x2="504" y2="90.5" stroke="#eee"/><text x="50" y="93.5" text-anchor="end" fill="#666">154.5</text><line x1="56" y1="36" x2="504" y2="36" stroke="#eee"/><text x="50" y="39" text-anchor="end" fill="#666">206.0</text><line x1="112" y1="232.6582677912306" x2="112" y2="162.26177298534137" stroke="#999999" stroke-width="1.5"/><rect x="78.4" y="215.79337799765005" width="67.2" height="9.816244298084513" fill="#99999922" stroke="#999999" stroke-width="1.5"/><line x1="78.4" y1="222.35518011564767" x2="145.6" y2="222.35518011564767" stroke="#999999" stroke-width="2.5"/><text x="112" y="270" text-anchor="middle" font-weight="600">vanilla</text><text x="112" y="284" text-anchor="middle" fill="#888">n=30·29.9</text><line x1="224" y1="235.441741919392" x2="224" y2="216.67710457440032" stroke="#0072B2" stroke-width="1.5"/><rect x="190.4" y="224.3395960764227" width="67.2" height="9.498737743256584" fill="#0072B222" stroke="#0072B2" stroke-width="1.5"/><line x1="190.4" y1="230.08117292745288" x2="257.6" y2="230.08117292745288" stroke="#0072B2" stroke-width="2.5"/><text x="224" y="270" text-anchor="middle" font-weight="600">tide</text><text x="224" y="284" text-anchor="middle" fill="#888">n=30·22.6</text><line x1="336" y1="232.21375861683705" x2="336" y2="192.17618215002108" stroke="#E69F00" stroke-width="1.5"/><rect x="302.4" y="218.3334304244457" width="67.2" height="8.890183517440875" fill="#E69F0022" stroke="#E69F00" stroke-width="1.5"/><line x1="302.4" y1="223.25478202033642" x2="369.6" y2="223.25478202033642" stroke="#E69F00" stroke-width="2.5"/><text x="336" y="270" text-anchor="middle" font-weight="600">tanstack</text><text x="336" y="284" text-anchor="middle" fill="#888">n=30·29.0</text><line x1="448" y1="231.22419651813098" x2="448" y2="185.60908825762098" stroke="#009E73" stroke-width="1.5"/><rect x="414.4" y="212.4066414180754" width="67.2" height="14.287794935716818" fill="#009E7322" stroke="#009E73" stroke-width="1.5"/><line x1="414.4" y1="220.92640062089316" x2="481.6" y2="220.92640062089316" stroke="#009E73" stroke-width="2.5"/><text x="448" y="270" text-anchor="middle" font-weight="600">swr</text><text x="448" y="284" text-anchor="middle" fill="#888">n=30·31.3</text></svg>