<svg xmlns="http://www.w3.org/2000/svg" width="460" height="300" font-family="system-ui,sans-serif" font-size="11"><rect width="460" height="300" fill="white"/><text x="230" y="18" text-anchor="middle" font-size="13" font-weight="600">gateways · revisit · ttdp_ms</text><line x1="56" y1="254" x2="444" y2="254" stroke="#eee"/><text x="50" y="257" text-anchor="end" fill="#666">0.0</text><line x1="56" y1="199.5" x2="444" y2="199.5" stroke="#eee"/><text x="50" y="202.5" text-anchor="end" fill="#666">45.2</text><line x1="56" y1="145" x2="444" y2="145" stroke="#eee"/><text x="50" y="148" text-anchor="end" fill="#666">90.4</text><line x1="56" y1="90.5" x2="444" y2="90.5" stroke="#eee"/><text x="50" y="93.5" text-anchor="end" fill="#666">135.6</text><line x1="56" y1="36" x2="444" y2="36" stroke="#eee"/><text x="50" y="39" text-anchor="end" fill="#666">180.8</text><line x1="120.66666666666667" y1="234.8015815976853" x2="120.66666666666667" y2="222.25178344343487" stroke="#0072B2" stroke-width="1.5"/><line x1="102.66666666666667" y1="222.25178344343487" x2="138.66666666666669" y2="222.25178344343487" stroke="#0072B2"/><line x1="102.66666666666667" y1="234.8015815976853" x2="138.66666666666669" y2="234.8015815976853" stroke="#0072B2"/><rect x="84.66666666666667" y="226.63396560222395" width="72" height="5.907205665359868" fill="#0072B222" stroke="#0072B2" stroke-width="1.5"/><line x1="84.66666666666667" y1="229.0450699520867" x2="156.66666666666669" y2="229.0450699520867" stroke="#0072B2" stroke-width="2.5"/><text x="120.66666666666667" y="270" text-anchor="middle" font-weight="600">tide</text><text x="120.66666666666667" y="284" text-anchor="middle" fill="#888">n=30 · med 20.7</text><line x1="250" y1="229.64784604505388" x2="250" y2="134.7286954632525" stroke="#E69F00" stroke-width="1.5"/><line x1="232" y1="134.7286954632525" x2="268" y2="134.7286954632525" stroke="#E69F00"/><line x1="232" y1="229.64784604505388" x2="268" y2="229.64784604505388" stroke="#E69F00"/><rect x="214" y="213.85511254099032" width="72" height="12.869269475785018" fill="#E69F0022" stroke="#E69F00" stroke-width="1.5"/><line x1="214" y1="219.94315102647084" x2="286" y2="219.94315102647084" stroke="#E69F00" stroke-width="2.5"/><text x="250" y="270" text-anchor="middle" font-weight="600">tanstack</text><text x="250" y="284" text-anchor="middle" fill="#888">n=30 · med 28.3</text><line x1="379.33333333333337" y1="230.20842780539212" x2="379.33333333333337" y2="186.22988442509325" stroke="#009E73" stroke-width="1.5"/><line x1="361.33333333333337" y1="186.22988442509325" x2="397.33333333333337" y2="186.22988442509325" stroke="#009E73"/><line x1="361.33333333333337" y1="230.20842780539212" x2="397.33333333333337" y2="230.20842780539212" stroke="#009E73"/><rect x="343.33333333333337" y="215.1510811271048" width="72" height="11.723994911677295" fill="#009E7322" stroke="#009E73" stroke-width="1.5"/><line x1="343.33333333333337" y1="220.78703754881053" x2="415.33333333333337" y2="220.78703754881053" stroke="#009E73" stroke-width="2.5"/><text x="379.33333333333337" y="270" text-anchor="middle" font-weight="600">swr</text><text x="379.33333333333337" y="284" text-anchor="middle" fill="#888">n=30 · med 27.6</text></svg>