<svg xmlns="http://www.w3.org/2000/svg" width="460" height="300" font-family="system-ui,sans-serif" font-size="11"><rect width="460" height="300" fill="white"/><text x="230" y="18" text-anchor="middle" font-size="13" font-weight="600">dashboard · revisit · ttdp_ms</text><line x1="56" y1="254" x2="444" y2="254" stroke="#eee"/><text x="50" y="257" text-anchor="end" fill="#666">8.6</text><line x1="56" y1="199.5" x2="444" y2="199.5" stroke="#eee"/><text x="50" y="202.5" text-anchor="end" fill="#666">29.6</text><line x1="56" y1="145" x2="444" y2="145" stroke="#eee"/><text x="50" y="148" text-anchor="end" fill="#666">50.5</text><line x1="56" y1="90.5" x2="444" y2="90.5" stroke="#eee"/><text x="50" y="93.5" text-anchor="end" fill="#666">71.4</text><line x1="56" y1="36" x2="444" y2="36" stroke="#eee"/><text x="50" y="39" text-anchor="end" fill="#666">92.4</text><line x1="120.66666666666667" y1="232.99641833480013" x2="120.66666666666667" y2="204.14577364487621" stroke="#0072B2" stroke-width="1.5"/><line x1="102.66666666666667" y1="204.14577364487621" x2="138.66666666666669" y2="204.14577364487621" stroke="#0072B2"/><line x1="102.66666666666667" y1="232.99641833480013" x2="138.66666666666669" y2="232.99641833480013" stroke="#0072B2"/><rect x="84.66666666666667" y="212.47433142557927" width="72" height="18.08858643919055" fill="#0072B222" stroke="#0072B2" stroke-width="1.5"/><line x1="84.66666666666667" y1="226.5938395401999" x2="156.66666666666669" y2="226.5938395401999" stroke="#0072B2" stroke-width="2.5"/><text x="120.66666666666667" y="270" text-anchor="middle" font-weight="600">tide</text><text x="120.66666666666667" y="284" text-anchor="middle" fill="#888">n=30 · med 19.2</text><line x1="250" y1="215.96191499998758" x2="250" y2="165.80838109117704" stroke="#E69F00" stroke-width="1.5"/><line x1="232" y1="165.80838109117704" x2="268" y2="165.80838109117704" stroke="#E69F00"/><line x1="232" y1="215.96191499998758" x2="268" y2="215.96191499998758" stroke="#E69F00"/><rect x="214" y="196.33775071207486" width="72" height="11.842168115055728" fill="#E69F0022" stroke="#E69F00" stroke-width="1.5"/><line x1="214" y1="200.95749762803305" x2="286" y2="200.95749762803305" stroke="#E69F00" stroke-width="2.5"/><text x="250" y="270" text-anchor="middle" font-weight="600">tanstack</text><text x="250" y="284" text-anchor="middle" fill="#888">n=30 · med 29.0</text><line x1="379.33333333333337" y1="218.34336199472952" x2="379.33333333333337" y2="150.63478988478272" stroke="#009E73" stroke-width="1.5"/><line x1="361.33333333333337" y1="150.63478988478272" x2="397.33333333333337" y2="150.63478988478272" stroke="#009E73"/><line x1="361.33333333333337" y1="218.34336199472952" x2="397.33333333333337" y2="218.34336199472952" stroke="#009E73"/><rect x="343.33333333333337" y="188.2043935015165" width="72" height="19.12965616795944" fill="#009E7322" stroke="#009E73" stroke-width="1.5"/><line x1="343.33333333333337" y1="197.44388730919354" x2="415.33333333333337" y2="197.44388730919354" stroke="#009E73" stroke-width="2.5"/><text x="379.33333333333337" y="270" text-anchor="middle" font-weight="600">swr</text><text x="379.33333333333337" y="284" text-anchor="middle" fill="#888">n=30 · med 30.3</text></svg>