<svg xmlns="http://www.w3.org/2000/svg" width="460" height="300" font-family="system-ui,sans-serif" font-size="11"><rect width="460" height="300" fill="white"/><text x="230" y="18" text-anchor="middle" font-size="13" font-weight="600">stack · revisit · ttdp_ms</text><line x1="56" y1="254" x2="444" y2="254" stroke="#eee"/><text x="50" y="257" text-anchor="end" fill="#666">5.7</text><line x1="56" y1="199.5" x2="444" y2="199.5" stroke="#eee"/><text x="50" y="202.5" text-anchor="end" fill="#666">29.9</text><line x1="56" y1="145" x2="444" y2="145" stroke="#eee"/><text x="50" y="148" text-anchor="end" fill="#666">54.0</text><line x1="56" y1="90.50000000000003" x2="444" y2="90.50000000000003" stroke="#eee"/><text x="50" y="93.50000000000003" text-anchor="end" fill="#666">78.2</text><line x1="56" y1="36" x2="444" y2="36" stroke="#eee"/><text x="50" y="39" text-anchor="end" fill="#666">102.3</text><line x1="120.66666666666667" y1="235.12246375584175" x2="120.66666666666667" y2="207.0036231884058" stroke="#0072B2" stroke-width="1.5"/><line x1="102.66666666666667" y1="207.0036231884058" x2="138.66666666666669" y2="207.0036231884058" stroke="#0072B2"/><line x1="102.66666666666667" y1="235.12246375584175" x2="138.66666666666669" y2="235.12246375584175" stroke="#0072B2"/><rect x="84.66666666666667" y="215.1278467850054" width="72" height="16.135610754275774" fill="#0072B222" stroke="#0072B2" stroke-width="1.5"/><line x1="84.66666666666667" y1="223.87267079736506" x2="156.66666666666669" y2="223.87267079736506" stroke="#0072B2" stroke-width="2.5"/><text x="120.66666666666667" y="270" text-anchor="middle" font-weight="600">tide</text><text x="120.66666666666667" y="284" text-anchor="middle" fill="#888">n=30 · med 19.1</text><line x1="250" y1="221.48053829773767" x2="250" y2="141.8405797000566" stroke="#E69F00" stroke-width="1.5"/><line x1="232" y1="141.8405797000566" x2="268" y2="141.8405797000566" stroke="#E69F00"/><line x1="232" y1="221.48053829773767" x2="268" y2="221.48053829773767" stroke="#E69F00"/><rect x="214" y="187.5393374690759" width="72" height="23.018633542894776" fill="#E69F0022" stroke="#E69F00" stroke-width="1.5"/><line x1="214" y1="200.28985506405678" x2="286" y2="200.28985506405678" stroke="#E69F00" stroke-width="2.5"/><text x="250" y="270" text-anchor="middle" font-weight="600">tanstack</text><text x="250" y="284" text-anchor="middle" fill="#888">n=30 · med 29.6</text><line x1="379.33333333333337" y1="221.83033125436486" x2="379.33333333333337" y2="143.0366459586976" stroke="#009E73" stroke-width="1.5"/><line x1="361.33333333333337" y1="143.0366459586976" x2="397.33333333333337" y2="143.0366459586976" stroke="#009E73"/><line x1="361.33333333333337" y1="221.83033125436486" x2="397.33333333333337" y2="221.83033125436486" stroke="#009E73"/><rect x="343.33333333333337" y="192.22204967851192" width="72" height="20.47981366711838" fill="#009E7322" stroke="#009E73" stroke-width="1.5"/><line x1="343.33333333333337" y1="204.35196686698043" x2="415.33333333333337" y2="204.35196686698043" stroke="#009E73" stroke-width="2.5"/><text x="379.33333333333337" y="270" text-anchor="middle" font-weight="600">swr</text><text x="379.33333333333337" y="284" text-anchor="middle" fill="#888">n=30 · med 27.8</text></svg>