<svg xmlns="http://www.w3.org/2000/svg" width="460" height="300" font-family="system-ui,sans-serif" font-size="11"><rect width="460" height="300" fill="white"/><text x="230" y="18" text-anchor="middle" font-size="13" font-weight="600">dashboard · steady · js_heap_mb</text><line x1="56" y1="254" x2="444" y2="254" stroke="#eee"/><text x="50" y="257" text-anchor="end" fill="#666">3.2</text><line x1="56" y1="199.5" x2="444" y2="199.5" stroke="#eee"/><text x="50" y="202.5" text-anchor="end" fill="#666">3.7</text><line x1="56" y1="145" x2="444" y2="145" stroke="#eee"/><text x="50" y="148" text-anchor="end" fill="#666">4.1</text><line x1="56" y1="90.5" x2="444" y2="90.5" stroke="#eee"/><text x="50" y="93.5" text-anchor="end" fill="#666">4.6</text><line x1="56" y1="36" x2="444" y2="36" stroke="#eee"/><text x="50" y="39" text-anchor="end" fill="#666">5.1</text><line x1="120.66666666666667" y1="165.99691303448242" x2="120.66666666666667" y2="136.12852355936394" stroke="#0072B2" stroke-width="1.5"/><line x1="102.66666666666667" y1="136.12852355936394" x2="138.66666666666669" y2="136.12852355936394" stroke="#0072B2"/><line x1="102.66666666666667" y1="165.99691303448242" x2="138.66666666666669" y2="165.99691303448242" stroke="#0072B2"/><rect x="84.66666666666667" y="136.31268476324567" width="72" height="1" fill="#0072B222" stroke="#0072B2" stroke-width="1.5"/><line x1="84.66666666666667" y1="136.4466801911596" x2="156.66666666666669" y2="136.4466801911596" stroke="#0072B2" stroke-width="2.5"/><text x="120.66666666666667" y="270" text-anchor="middle" font-weight="600">tide</text><text x="120.66666666666667" y="284" text-anchor="middle" fill="#888">n=30 · med 4.2</text><line x1="250" y1="188.378357480609" x2="250" y2="183.54990154370984" stroke="#E69F00" stroke-width="1.5"/><line x1="232" y1="183.54990154370984" x2="268" y2="183.54990154370984" stroke="#E69F00"/><line x1="232" y1="188.378357480609" x2="268" y2="188.378357480609" stroke="#E69F00"/><rect x="214" y="184.7067067355003" width="72" height="3.083325006686522" fill="#E69F0022" stroke="#E69F00" stroke-width="1.5"/><line x1="214" y1="186.79771748949076" x2="286" y2="186.79771748949076" stroke="#E69F00" stroke-width="2.5"/><text x="250" y="270" text-anchor="middle" font-weight="600">tanstack</text><text x="250" y="284" text-anchor="middle" fill="#888">n=30 · med 3.8</text><line x1="379.33333333333337" y1="232.60364747500745" x2="379.33333333333337" y2="117.06330643574098" stroke="#009E73" stroke-width="1.5"/><line x1="361.33333333333337" y1="117.06330643574098" x2="397.33333333333337" y2="117.06330643574098" stroke="#009E73"/><line x1="361.33333333333337" y1="232.60364747500745" x2="397.33333333333337" y2="232.60364747500745" stroke="#009E73"/><rect x="343.33333333333337" y="132.8434353221403" width="72" height="3.9583657567912667" fill="#009E7322" stroke="#009E73" stroke-width="1.5"/><line x1="343.33333333333337" y1="134.30330340786944" x2="415.33333333333337" y2="134.30330340786944" stroke="#009E73" stroke-width="2.5"/><text x="379.33333333333337" y="270" text-anchor="middle" font-weight="600">swr</text><text x="379.33333333333337" y="284" text-anchor="middle" fill="#888">n=30 · med 4.2</text></svg>