<svg xmlns="http://www.w3.org/2000/svg" width="460" height="300" font-family="system-ui,sans-serif" font-size="11"><rect width="460" height="300" fill="white"/><text x="230" y="18" text-anchor="middle" font-size="13" font-weight="600">gateways · steady · js_heap_mb</text><line x1="56" y1="254" x2="444" y2="254" stroke="#eee"/><text x="50" y="257" text-anchor="end" fill="#666">3.2</text><line x1="56" y1="199.5" x2="444" y2="199.5" stroke="#eee"/><text x="50" y="202.5" text-anchor="end" fill="#666">3.4</text><line x1="56" y1="145" x2="444" y2="145" stroke="#eee"/><text x="50" y="148" text-anchor="end" fill="#666">3.6</text><line x1="56" y1="90.5" x2="444" y2="90.5" stroke="#eee"/><text x="50" y="93.5" text-anchor="end" fill="#666">3.7</text><line x1="56" y1="36" x2="444" y2="36" stroke="#eee"/><text x="50" y="39" text-anchor="end" fill="#666">3.9</text><line x1="120.66666666666667" y1="235.24630393280464" x2="120.66666666666667" y2="222.9857542644543" stroke="#0072B2" stroke-width="1.5"/><line x1="102.66666666666667" y1="222.9857542644543" x2="138.66666666666669" y2="222.9857542644543" stroke="#0072B2"/><line x1="102.66666666666667" y1="235.24630393280464" x2="138.66666666666669" y2="235.24630393280464" stroke="#0072B2"/><rect x="84.66666666666667" y="228.95800926995722" width="72" height="5.324567402855962" fill="#0072B222" stroke="#0072B2" stroke-width="1.5"/><line x1="84.66666666666667" y1="231.09985235892285" x2="156.66666666666669" y2="231.09985235892285" stroke="#0072B2" stroke-width="2.5"/><text x="120.66666666666667" y="270" text-anchor="middle" font-weight="600">tide</text><text x="120.66666666666667" y="284" text-anchor="middle" fill="#888">n=30 · med 3.3</text><line x1="250" y1="62.37961255590177" x2="250" y2="54.542054444198044" stroke="#E69F00" stroke-width="1.5"/><line x1="232" y1="54.542054444198044" x2="268" y2="54.542054444198044" stroke="#E69F00"/><line x1="232" y1="62.37961255590177" x2="268" y2="62.37961255590177" stroke="#E69F00"/><rect x="214" y="56.993626258193075" width="72" height="3.091793358322704" fill="#E69F0022" stroke="#E69F00" stroke-width="1.5"/><line x1="214" y1="59.182167428910304" x2="286" y2="59.182167428910304" stroke="#E69F00" stroke-width="2.5"/><text x="250" y="270" text-anchor="middle" font-weight="600">tanstack</text><text x="250" y="284" text-anchor="middle" fill="#888">n=30 · med 3.8</text><line x1="379.33333333333337" y1="187.64840719781267" x2="379.33333333333337" y2="145.17402959335124" stroke="#009E73" stroke-width="1.5"/><line x1="361.33333333333337" y1="145.17402959335124" x2="397.33333333333337" y2="145.17402959335124" stroke="#009E73"/><line x1="361.33333333333337" y1="187.64840719781267" x2="397.33333333333337" y2="187.64840719781267" stroke="#009E73"/><rect x="343.33333333333337" y="151.04236551919152" width="72" height="8.450944106789592" fill="#009E7322" stroke="#009E73" stroke-width="1.5"/><line x1="343.33333333333337" y1="155.2525885006418" x2="415.33333333333337" y2="155.2525885006418" stroke="#009E73" stroke-width="2.5"/><text x="379.33333333333337" y="270" text-anchor="middle" font-weight="600">swr</text><text x="379.33333333333337" y="284" text-anchor="middle" fill="#888">n=30 · med 3.5</text></svg>