<svg xmlns="http://www.w3.org/2000/svg" width="460" height="300" font-family="system-ui,sans-serif" font-size="11"><rect width="460" height="300" fill="white"/><text x="230" y="18" text-anchor="middle" font-size="13" font-weight="600">stack · steady · js_heap_mb</text><line x1="56" y1="254" x2="444" y2="254" stroke="#eee"/><text x="50" y="257" text-anchor="end" fill="#666">2.8</text><line x1="56" y1="199.5" x2="444" y2="199.5" stroke="#eee"/><text x="50" y="202.5" text-anchor="end" fill="#666">3.0</text><line x1="56" y1="145" x2="444" y2="145" stroke="#eee"/><text x="50" y="148" text-anchor="end" fill="#666">3.2</text><line x1="56" y1="90.5" x2="444" y2="90.5" stroke="#eee"/><text x="50" y="93.5" text-anchor="end" fill="#666">3.4</text><line x1="56" y1="36" x2="444" y2="36" stroke="#eee"/><text x="50" y="39" text-anchor="end" fill="#666">3.6</text><line x1="120.66666666666667" y1="234.93560876753244" x2="120.66666666666667" y2="156.9196890610279" stroke="#0072B2" stroke-width="1.5"/><line x1="102.66666666666667" y1="156.9196890610279" x2="138.66666666666669" y2="156.9196890610279" stroke="#0072B2"/><line x1="102.66666666666667" y1="234.93560876753244" x2="138.66666666666669" y2="234.93560876753244" stroke="#0072B2"/><rect x="84.66666666666667" y="162.1862034024852" width="72" height="59.963878593141686" fill="#0072B222" stroke="#0072B2" stroke-width="1.5"/><line x1="84.66666666666667" y1="165.0946527296322" x2="156.66666666666669" y2="165.0946527296322" stroke="#0072B2" stroke-width="2.5"/><text x="120.66666666666667" y="270" text-anchor="middle" font-weight="600">tide</text><text x="120.66666666666667" y="284" text-anchor="middle" fill="#888">n=30 · med 3.1</text><line x1="250" y1="69.63424972890334" x2="250" y2="60.49830853465599" stroke="#E69F00" stroke-width="1.5"/><line x1="232" y1="60.49830853465599" x2="268" y2="60.49830853465599" stroke="#E69F00"/><line x1="232" y1="69.63424972890334" x2="268" y2="69.63424972890334" stroke="#E69F00"/><rect x="214" y="62.02708522212149" width="72" height="5.749080049064041" fill="#E69F0022" stroke="#E69F00" stroke-width="1.5"/><line x1="214" y1="62.909574822676134" x2="286" y2="62.909574822676134" stroke="#E69F00" stroke-width="2.5"/><text x="250" y="270" text-anchor="middle" font-weight="600">tanstack</text><text x="250" y="284" text-anchor="middle" fill="#888">n=30 · med 3.5</text><line x1="379.33333333333337" y1="143.18062058912412" x2="379.33333333333337" y2="129.74890361402944" stroke="#009E73" stroke-width="1.5"/><line x1="361.33333333333337" y1="129.74890361402944" x2="397.33333333333337" y2="129.74890361402944" stroke="#009E73"/><line x1="361.33333333333337" y1="143.18062058912412" x2="397.33333333333337" y2="143.18062058912412" stroke="#009E73"/><rect x="343.33333333333337" y="133.70674897338807" width="72" height="7.977890068085287" fill="#009E7322" stroke="#009E73" stroke-width="1.5"/><line x1="343.33333333333337" y1="139.2925799512915" x2="415.33333333333337" y2="139.2925799512915" stroke="#009E73" stroke-width="2.5"/><text x="379.33333333333337" y="270" text-anchor="middle" font-weight="600">swr</text><text x="379.33333333333337" y="284" text-anchor="middle" fill="#888">n=30 · med 3.2</text></svg>