<svg xmlns="http://www.w3.org/2000/svg" width="460" height="300" font-family="system-ui,sans-serif" font-size="11"><rect width="460" height="300" fill="white"/><text x="230" y="18" text-anchor="middle" font-size="13" font-weight="600">daemon · steady · js_heap_mb</text><line x1="56" y1="254" x2="444" y2="254" stroke="#eee"/><text x="50" y="257" text-anchor="end" fill="#666">3.3</text><line x1="56" y1="199.5" x2="444" y2="199.5" stroke="#eee"/><text x="50" y="202.5" text-anchor="end" fill="#666">3.5</text><line x1="56" y1="145" x2="444" y2="145" stroke="#eee"/><text x="50" y="148" text-anchor="end" fill="#666">3.6</text><line x1="56" y1="90.5" x2="444" y2="90.5" stroke="#eee"/><text x="50" y="93.5" text-anchor="end" fill="#666">3.8</text><line x1="56" y1="36" x2="444" y2="36" stroke="#eee"/><text x="50" y="39" text-anchor="end" fill="#666">4.0</text><line x1="120.66666666666667" y1="235.25008420601384" x2="120.66666666666667" y2="223.61196950211283" stroke="#0072B2" stroke-width="1.5"/><line x1="102.66666666666667" y1="223.61196950211283" x2="138.66666666666669" y2="223.61196950211283" stroke="#0072B2"/><line x1="102.66666666666667" y1="235.25008420601384" x2="138.66666666666669" y2="235.25008420601384" stroke="#0072B2"/><rect x="84.66666666666667" y="229.73132923020393" width="72" height="3.25390154530794" fill="#0072B222" stroke="#0072B2" stroke-width="1.5"/><line x1="84.66666666666667" y1="230.59382591299732" x2="156.66666666666669" y2="230.59382591299732" stroke="#0072B2" stroke-width="2.5"/><text x="120.66666666666667" y="270" text-anchor="middle" font-weight="600">tide</text><text x="120.66666666666667" y="284" text-anchor="middle" fill="#888">n=30 · med 3.4</text><line x1="250" y1="99.91709535182802" x2="250" y2="58.88856482332048" stroke="#E69F00" stroke-width="1.5"/><line x1="232" y1="58.88856482332048" x2="268" y2="58.88856482332048" stroke="#E69F00"/><line x1="232" y1="99.91709535182802" x2="268" y2="99.91709535182802" stroke="#E69F00"/><rect x="214" y="59.94686855696409" width="72" height="36.32026098760895" fill="#E69F0022" stroke="#E69F00" stroke-width="1.5"/><line x1="214" y1="62.957401963786324" x2="286" y2="62.957401963786324" stroke="#E69F00" stroke-width="2.5"/><text x="250" y="270" text-anchor="middle" font-weight="600">tanstack</text><text x="250" y="284" text-anchor="middle" fill="#888">n=30 · med 3.9</text><line x1="379.33333333333337" y1="199.95825525139327" x2="379.33333333333337" y2="186.05795721313825" stroke="#009E73" stroke-width="1.5"/><line x1="361.33333333333337" y1="186.05795721313825" x2="397.33333333333337" y2="186.05795721313825" stroke="#009E73"/><line x1="361.33333333333337" y1="199.95825525139327" x2="397.33333333333337" y2="199.95825525139327" stroke="#009E73"/><rect x="343.33333333333337" y="191.27978915324474" width="72" height="7.212875354685963" fill="#009E7322" stroke="#009E73" stroke-width="1.5"/><line x1="343.33333333333337" y1="196.0954883438463" x2="415.33333333333337" y2="196.0954883438463" stroke="#009E73" stroke-width="2.5"/><text x="379.33333333333337" y="270" text-anchor="middle" font-weight="600">swr</text><text x="379.33333333333337" y="284" text-anchor="middle" fill="#888">n=30 · med 3.5</text></svg>