<svg xmlns="http://www.w3.org/2000/svg" width="460" height="300" font-family="system-ui,sans-serif" font-size="11"><rect width="460" height="300" fill="white"/><text x="230" y="18" text-anchor="middle" font-size="13" font-weight="600">stack · update · update_to_dom_ms</text><line x1="56" y1="254" x2="444" y2="254" stroke="#eee"/><text x="50" y="257" text-anchor="end" fill="#666">0.0</text><line x1="56" y1="199.5" x2="444" y2="199.5" stroke="#eee"/><text x="50" y="202.5" text-anchor="end" fill="#666">3.9</text><line x1="56" y1="145" x2="444" y2="145" stroke="#eee"/><text x="50" y="148" text-anchor="end" fill="#666">7.7</text><line x1="56" y1="90.5" x2="444" y2="90.5" stroke="#eee"/><text x="50" y="93.5" text-anchor="end" fill="#666">11.6</text><line x1="56" y1="36" x2="444" y2="36" stroke="#eee"/><text x="50" y="39" text-anchor="end" fill="#666">15.4</text><line x1="120.66666666666667" y1="244.1229773740062" x2="120.66666666666667" y2="77.90679602123649" stroke="#0072B2" stroke-width="1.5"/><line x1="102.66666666666667" y1="77.90679602123649" x2="138.66666666666669" y2="77.90679602123649" stroke="#0072B2"/><line x1="102.66666666666667" y1="244.1229773740062" x2="138.66666666666669" y2="244.1229773740062" stroke="#0072B2"/><rect x="84.66666666666667" y="130.53721678084818" width="72" height="93.83171522552979" fill="#0072B222" stroke="#0072B2" stroke-width="1.5"/><line x1="84.66666666666667" y1="162.2847896086301" x2="156.66666666666669" y2="162.2847896086301" stroke="#0072B2" stroke-width="2.5"/><text x="120.66666666666667" y="270" text-anchor="middle" font-weight="600">tide</text><text x="120.66666666666667" y="284" text-anchor="middle" fill="#888">n=27 · med 6.5</text><line x1="250" y1="239.88996763209693" x2="250" y2="72.33333328953003" stroke="#E69F00" stroke-width="1.5"/><line x1="232" y1="72.33333328953003" x2="268" y2="72.33333328953003" stroke="#E69F00"/><line x1="232" y1="239.88996763209693" x2="268" y2="239.88996763209693" stroke="#E69F00"/><rect x="214" y="117.48543680374307" width="72" height="80.07443372464469" fill="#E69F0022" stroke="#E69F00" stroke-width="1.5"/><line x1="214" y1="160.87378635081419" x2="286" y2="160.87378635081419" stroke="#E69F00" stroke-width="2.5"/><text x="250" y="270" text-anchor="middle" font-weight="600">tanstack</text><text x="250" y="284" text-anchor="middle" fill="#888">n=30 · med 6.6</text><line x1="379.33333333333337" y1="244.89902913952298" x2="379.33333333333337" y2="109.16051774557761" stroke="#009E73" stroke-width="1.5"/><line x1="361.33333333333337" y1="109.16051774557761" x2="397.33333333333337" y2="109.16051774557761" stroke="#009E73"/><line x1="361.33333333333337" y1="244.89902913952298" x2="397.33333333333337" y2="244.89902913952298" stroke="#009E73"/><rect x="343.33333333333337" y="122.07119736536274" width="72" height="64.55339804636174" fill="#009E7322" stroke="#009E73" stroke-width="1.5"/><line x1="343.33333333333337" y1="155.22977337211455" x2="415.33333333333337" y2="155.22977337211455" stroke="#009E73" stroke-width="2.5"/><text x="379.33333333333337" y="270" text-anchor="middle" font-weight="600">swr</text><text x="379.33333333333337" y="284" text-anchor="middle" fill="#888">n=30 · med 7.0</text></svg>