<svg xmlns="http://www.w3.org/2000/svg" width="460" height="300" font-family="system-ui,sans-serif" font-size="11"><rect width="460" height="300" fill="white"/><text x="230" y="18" text-anchor="middle" font-size="13" font-weight="600">gateways · update · update_to_dom_ms</text><line x1="56" y1="254" x2="444" y2="254" stroke="#eee"/><text x="50" y="257" text-anchor="end" fill="#666">0.0</text><line x1="56" y1="199.5" x2="444" y2="199.5" stroke="#eee"/><text x="50" y="202.5" text-anchor="end" fill="#666">4.6</text><line x1="56" y1="145" x2="444" y2="145" stroke="#eee"/><text x="50" y="148" text-anchor="end" fill="#666">9.3</text><line x1="56" y1="90.5" x2="444" y2="90.5" stroke="#eee"/><text x="50" y="93.5" text-anchor="end" fill="#666">13.9</text><line x1="56" y1="36" x2="444" y2="36" stroke="#eee"/><text x="50" y="39" text-anchor="end" fill="#666">18.5</text><line x1="120.66666666666667" y1="245.411764691029" x2="120.66666666666667" y2="124.94117646339332" stroke="#0072B2" stroke-width="1.5"/><line x1="102.66666666666667" y1="124.94117646339332" x2="138.66666666666669" y2="124.94117646339332" stroke="#0072B2"/><line x1="102.66666666666667" y1="245.411764691029" x2="138.66666666666669" y2="245.411764691029" stroke="#0072B2"/><rect x="84.66666666666667" y="153.99999994652308" width="72" height="81.17647066619193" fill="#0072B222" stroke="#0072B2" stroke-width="1.5"/><line x1="84.66666666666667" y1="196.35294110078456" x2="156.66666666666669" y2="196.35294110078456" stroke="#0072B2" stroke-width="2.5"/><text x="120.66666666666667" y="270" text-anchor="middle" font-weight="600">tide</text><text x="120.66666666666667" y="284" text-anchor="middle" fill="#888">n=27 · med 4.9</text><line x1="250" y1="229.29411767535356" x2="250" y2="80.64705882257866" stroke="#E69F00" stroke-width="1.5"/><line x1="232" y1="80.64705882257866" x2="268" y2="80.64705882257866" stroke="#E69F00"/><line x1="232" y1="229.29411767535356" x2="268" y2="229.29411767535356" stroke="#E69F00"/><rect x="214" y="155.470588269613" width="72" height="68.2352940891702" fill="#E69F0022" stroke="#E69F00" stroke-width="1.5"/><line x1="214" y1="203.4117646922352" x2="286" y2="203.4117646922352" stroke="#E69F00" stroke-width="2.5"/><text x="250" y="270" text-anchor="middle" font-weight="600">tanstack</text><text x="250" y="284" text-anchor="middle" fill="#888">n=30 · med 4.3</text><line x1="379.33333333333337" y1="239.35294117155098" x2="379.33333333333337" y2="95.47058823314416" stroke="#009E73" stroke-width="1.5"/><line x1="361.33333333333337" y1="95.47058823314416" x2="397.33333333333337" y2="95.47058823314416" stroke="#009E73"/><line x1="361.33333333333337" y1="239.35294117155098" x2="397.33333333333337" y2="239.35294117155098" stroke="#009E73"/><rect x="343.33333333333337" y="144.58823529670752" width="72" height="78.82352941060577" fill="#009E7322" stroke="#009E73" stroke-width="1.5"/><line x1="343.33333333333337" y1="170.47058825352974" x2="415.33333333333337" y2="170.47058825352974" stroke="#009E73" stroke-width="2.5"/><text x="379.33333333333337" y="270" text-anchor="middle" font-weight="600">swr</text><text x="379.33333333333337" y="284" text-anchor="middle" fill="#888">n=30 · med 7.1</text></svg>