<svg xmlns="http://www.w3.org/2000/svg" width="460" height="300" font-family="system-ui,sans-serif" font-size="11"><rect width="460" height="300" fill="white"/><text x="230" y="18" text-anchor="middle" font-size="13" font-weight="600">dashboard · update · update_to_dom_ms</text><line x1="56" y1="254" x2="444" y2="254" stroke="#eee"/><text x="50" y="257" text-anchor="end" fill="#666">0.1</text><line x1="56" y1="199.5" x2="444" y2="199.5" stroke="#eee"/><text x="50" y="202.5" text-anchor="end" fill="#666">4.0</text><line x1="56" y1="145" x2="444" y2="145" stroke="#eee"/><text x="50" y="148" text-anchor="end" fill="#666">7.8</text><line x1="56" y1="90.50000000000003" x2="444" y2="90.50000000000003" stroke="#eee"/><text x="50" y="93.50000000000003" text-anchor="end" fill="#666">11.6</text><line x1="56" y1="36" x2="444" y2="36" stroke="#eee"/><text x="50" y="39" text-anchor="end" fill="#666">15.5</text><line x1="120.66666666666667" y1="233.34960946959126" x2="120.66666666666667" y2="61.61783860156068" stroke="#0072B2" stroke-width="1.5"/><line x1="102.66666666666667" y1="61.61783860156068" x2="138.66666666666669" y2="61.61783860156068" stroke="#0072B2"/><line x1="102.66666666666667" y1="233.34960946959126" x2="138.66666666666669" y2="233.34960946959126" stroke="#0072B2"/><rect x="84.66666666666667" y="126.90429699767947" width="72" height="83.73697913857842" fill="#0072B222" stroke="#0072B2" stroke-width="1.5"/><line x1="84.66666666666667" y1="161.32161467172864" x2="156.66666666666669" y2="161.32161467172864" stroke="#0072B2" stroke-width="2.5"/><text x="120.66666666666667" y="270" text-anchor="middle" font-weight="600">tide</text><text x="120.66666666666667" y="284" text-anchor="middle" fill="#888">n=26 · med 6.6</text><line x1="250" y1="198.9322917426701" x2="250" y2="84.68098965388447" stroke="#E69F00" stroke-width="1.5"/><line x1="232" y1="84.68098965388447" x2="268" y2="84.68098965388447" stroke="#E69F00"/><line x1="232" y1="198.9322917426701" x2="268" y2="198.9322917426701" stroke="#E69F00"/><rect x="214" y="152.80598967503315" width="72" height="39.029947899318046" fill="#E69F0022" stroke="#E69F00" stroke-width="1.5"/><line x1="214" y1="184.02994797862598" x2="286" y2="184.02994797862598" stroke="#E69F00" stroke-width="2.5"/><text x="250" y="270" text-anchor="middle" font-weight="600">tanstack</text><text x="250" y="284" text-anchor="middle" fill="#888">n=30 · med 5.1</text><line x1="379.33333333333337" y1="173.38541673143482" x2="379.33333333333337" y2="101.49934904020226" stroke="#009E73" stroke-width="1.5"/><line x1="361.33333333333337" y1="101.49934904020226" x2="397.33333333333337" y2="101.49934904020226" stroke="#009E73"/><line x1="361.33333333333337" y1="173.38541673143482" x2="397.33333333333337" y2="173.38541673143482" stroke="#009E73"/><rect x="343.33333333333337" y="154.22526045053777" width="72" height="14.902343764044105" fill="#009E7322" stroke="#009E73" stroke-width="1.5"/><line x1="343.33333333333337" y1="162.74088547366924" x2="415.33333333333337" y2="162.74088547366924" stroke="#009E73" stroke-width="2.5"/><text x="379.33333333333337" y="270" text-anchor="middle" font-weight="600">swr</text><text x="379.33333333333337" y="284" text-anchor="middle" fill="#888">n=30 · med 6.6</text></svg>